<svg width="35" height="33" viewBox="0 0 35 33" fill="none" xmlns="http://www.w3.org/2000/svg">
<path d="M20.6537 10.6368C20.8558 10.3979 21.1058 10.2035 21.3878 10.0659C21.6698 9.92833 21.9775 9.85058 22.2914 9.83763C22.6053 9.82468 22.9185 9.87681 23.211 9.99069C23.5035 10.1046 23.7689 10.2777 23.9903 10.4991C24.2116 10.7205 24.3841 10.9852 24.4968 11.2765C24.6094 11.5677 24.6597 11.879 24.6444 12.1906C24.6292 12.5022 24.5487 12.8073 24.4082 13.0863C24.2676 13.3653 24.0701 13.6122 23.8281 13.8112L13.1145 24.5249L8.74963 25.7153L9.94004 21.3504L20.6537 10.6368Z" stroke="#9A9A9A" stroke-width="1.19041" stroke-linecap="round" stroke-linejoin="round"/>
<path d="M19.0665 12.2239L22.2409 15.3983" stroke="#9A9A9A" stroke-width="1.19041" stroke-linecap="round" stroke-linejoin="round"/>
</svg>
