<svg width="1387" height="2727" viewBox="0 0 1387 2727" fill="none" xmlns="http://www.w3.org/2000/svg">
<g clip-path="url(#clip0_724_4208)">
<rect width="1386" height="2727" transform="translate(0.41748)" fill="url(#paint0_linear_724_4208)"/>
<rect width="1386" height="2727" transform="translate(0.41748)" fill="white"/>
<path d="M1418.27 2778.6H-189.909L-99.5906 985.563L113.181 844.758C117.454 841.93 122.561 840.64 127.664 841.098L1484.4 962.98L1418.27 2778.6Z" fill="url(#paint1_linear_724_4208)"/>
<path d="M285.381 740.412H171.64C165.521 740.412 160.561 745.372 160.561 751.49V758.29C160.561 763.301 162.953 768.012 166.999 770.969L180.7 780.984V862.492C180.7 864.144 180.244 865.764 179.382 867.173L101.261 994.874C84.1722 1022.81 104.276 1058.67 137.023 1058.67H324.48C357.757 1058.67 377.769 1021.77 359.614 993.879L277.114 867.152C276.166 865.695 275.661 863.995 275.661 862.258V781.046L289.827 771.02C293.987 768.076 296.46 763.297 296.46 758.201V751.49C296.46 745.372 291.5 740.412 285.381 740.412Z" fill="white" stroke="white" stroke-width="12.9043" stroke-linecap="round"/>
<path d="M115.874 1003.82L184.01 895.143C191.721 886.661 202.517 911.05 234.132 918.276C261.121 924.445 295.05 922.132 310.472 950.385L345.012 1003.45C356.365 1020.89 343.85 1043.97 323.04 1043.97H138.087C117.478 1043.97 104.927 1021.28 115.874 1003.82Z" fill="#235DCA"/>
<path d="M184.01 895.143L115.874 1003.82C104.927 1021.28 117.478 1043.97 138.087 1043.97H323.04C343.85 1043.97 356.365 1020.89 345.012 1003.45L310.472 950.385M184.01 895.143C185.456 910.283 199.432 961.458 261.121 946.974C261.121 946.974 303.047 936.783 310.472 950.385M184.01 895.143C191.721 886.661 202.517 911.05 234.132 918.276C261.121 924.445 295.05 922.132 310.472 950.385" stroke="black" stroke-width="4.62665"/>
<path d="M183.24 893.374L193.264 896.458L216.397 911.881L228.735 918.049L250.326 921.905L271.146 925.761L285.026 929.616L295.821 935.014L303.532 941.954L274.23 943.496L245.699 949.665L223.337 946.58L202.517 935.014L190.951 918.049L183.24 893.374Z" fill="#002467"/>
<path d="M184.01 895.143L115.874 1003.82C104.927 1021.28 117.478 1043.97 138.087 1043.97H323.04C343.85 1043.97 356.365 1020.89 345.012 1003.45L310.472 950.385M184.01 895.143C185.456 910.283 199.432 961.458 261.121 946.974C261.121 946.974 303.047 936.783 310.472 950.385M184.01 895.143C191.721 886.661 202.517 911.05 234.132 918.276C261.121 924.445 295.05 922.132 310.472 950.385" stroke="black" stroke-width="4.62665"/>
<circle cx="180.925" cy="978.967" r="14.651" fill="#4787FF" fill-opacity="0.78" stroke="black" stroke-width="4.39531"/>
<ellipse cx="281.17" cy="1009.81" rx="8.48218" ry="8.48218" fill="#4787FF" fill-opacity="0.78" stroke="black" stroke-width="3.91485"/>
<circle cx="216.397" cy="1015.98" r="2.31332" fill="black"/>
<circle cx="148.538" cy="1014.44" r="2.31332" fill="black"/>
<circle cx="278.085" cy="963.545" r="2.31332" fill="black"/>
<path d="M285.381 746.864H171.64C169.084 746.864 167.013 748.935 167.013 751.49V758.29C167.013 761.242 168.422 764.018 170.806 765.76L187.152 777.708V862.492C187.152 865.332 186.368 868.117 184.886 870.54L106.765 998.241C92.3062 1021.88 109.316 1052.22 137.023 1052.22H324.48C352.635 1052.22 369.567 1020.99 354.207 997.399L271.707 870.672C270.077 868.168 269.209 865.245 269.209 862.258V777.708L286.1 765.754C288.551 764.019 290.008 761.203 290.008 758.201V751.49C290.008 748.935 287.936 746.864 285.381 746.864Z" fill="url(#paint2_linear_724_4208)" fill-opacity="0.35"/>
<path d="M269.209 777.708L286.1 765.754C288.551 764.019 290.008 761.203 290.008 758.201V751.49C290.008 748.935 287.936 746.864 285.381 746.864H171.64C169.084 746.864 167.013 748.935 167.013 751.49V758.29C167.013 761.242 168.422 764.018 170.806 765.76L187.152 777.708M269.209 777.708V862.258C269.209 865.245 270.077 868.168 271.707 870.672L354.207 997.399C369.567 1020.99 352.635 1052.22 324.48 1052.22H137.023C109.316 1052.22 92.3062 1021.88 106.765 998.241L184.886 870.54C186.368 868.117 187.152 865.332 187.152 862.492V777.708M269.209 777.708H255.724M187.152 777.708H215.626" stroke="black" stroke-width="4.62665" stroke-linecap="round"/>
<path opacity="0.8" d="M194.035 762.286V746.864H167.718V762.286L187.506 776.166V864.843L121.292 978.196C87.196 1025.08 112.92 1046.05 131.186 1050.68C117.182 1041.43 123.829 1017.52 128.903 1006.73L203.929 864.843V776.166L194.035 762.286Z" fill="white"/>
<path d="M323.655 954.227L318.955 945.81L356.74 1002.1C367.844 1031.71 343.374 1047.85 329.751 1052.22H275.002C320.999 1045.55 346.313 994.809 323.655 954.227Z" fill="#48738B" fill-opacity="0.22"/>
<path fill-rule="evenodd" clip-rule="evenodd" d="M190.951 909.567H161.649V904.94H190.951C192.228 904.94 193.264 905.976 193.264 907.254C193.264 908.531 192.228 909.567 190.951 909.567Z" fill="black"/>
<path fill-rule="evenodd" clip-rule="evenodd" d="M178.613 934.243H146.226V929.617H178.613C179.89 929.617 180.926 930.652 180.926 931.93C180.926 933.208 179.89 934.243 178.613 934.243Z" fill="black"/>
<path fill-rule="evenodd" clip-rule="evenodd" d="M163.191 955.834H133.888V951.207H163.191C164.468 951.207 165.504 952.243 165.504 953.52C165.504 954.798 164.468 955.834 163.191 955.834Z" fill="black"/>
<path fill-rule="evenodd" clip-rule="evenodd" d="M150.854 977.425H121.552V972.798H150.854C152.132 972.798 153.168 973.834 153.168 975.112C153.168 976.389 152.132 977.425 150.854 977.425Z" fill="black"/>
<path d="M269.209 777.708L286.1 765.754C288.551 764.019 290.008 761.203 290.008 758.201V751.49C290.008 748.935 287.936 746.864 285.381 746.864H171.64C169.084 746.864 167.013 748.935 167.013 751.49V758.29C167.013 761.242 168.422 764.018 170.806 765.76L187.152 777.708M269.209 777.708V862.258C269.209 865.245 270.077 868.168 271.707 870.672L354.207 997.399C369.567 1020.99 352.635 1052.22 324.48 1052.22H137.023C109.316 1052.22 92.3062 1021.88 106.765 998.241L184.886 870.54C186.368 868.117 187.152 865.332 187.152 862.492V777.708M269.209 777.708H255.724M187.152 777.708H215.626" stroke="black" stroke-width="4.62665" stroke-linecap="round"/>
<circle cx="252.21" cy="587.305" r="6.45213" transform="rotate(-91.4412 252.21 587.305)" fill="black"/>
<circle cx="250.638" cy="537.341" r="4.8391" transform="rotate(-91.4412 250.638 537.341)" fill="black"/>
<circle cx="144.096" cy="498.548" r="4.8391" transform="rotate(-91.4412 144.096 498.548)" fill="black"/>
<circle cx="223.098" cy="719.493" r="3.22606" transform="rotate(-91.4412 223.098 719.493)" fill="black"/>
<circle cx="120.324" cy="587.687" r="3.22606" transform="rotate(-169.282 120.324 587.687)" fill="black"/>
<circle cx="197.289" cy="635.616" r="3.22606" transform="rotate(-91.4412 197.289 635.616)" fill="black"/>
<circle cx="133.338" cy="544.699" r="3.22606" transform="rotate(-91.4412 133.338 544.699)" fill="black"/>
<circle cx="184.385" cy="538.833" r="3.22606" transform="rotate(-91.4412 184.385 538.833)" fill="black"/>
<circle cx="102.906" cy="525.101" r="2.41955" transform="rotate(-91.4412 102.906 525.101)" fill="black"/>
<circle cx="160.975" cy="473.485" r="2.41955" transform="rotate(-91.4412 160.975 473.485)" fill="black"/>
<circle cx="151.297" cy="628.336" r="2.41955" transform="rotate(-91.4412 151.297 628.336)" fill="black"/>
<circle cx="157.749" cy="441.224" r="2.41955" transform="rotate(-91.4412 157.749 441.224)" fill="black"/>
<circle cx="250.959" cy="644.12" r="20.9694" transform="rotate(-91.4412 250.959 644.12)" fill="#A7BFE8" stroke="black" stroke-width="2.48035"/>
<circle cx="196.943" cy="490.097" r="21.7759" transform="rotate(-91.4412 196.943 490.097)" fill="#002A78" stroke="black" stroke-width="3.22606"/>
<circle cx="185.233" cy="684.853" r="13.497" transform="rotate(-91.4412 185.233 684.853)" fill="#719EEB" stroke="black" stroke-width="3.22606"/>
<circle cx="186.277" cy="589.118" r="14.5173" transform="rotate(-91.4412 186.277 589.118)" fill="#235DCA" stroke="black" stroke-width="3.22606"/>
</g>
<defs>
<linearGradient id="paint0_linear_724_4208" x1="693" y1="0" x2="693" y2="2620.2" gradientUnits="userSpaceOnUse">
<stop stop-color="#D94B4B"/>
<stop offset="0.782425" stop-color="white"/>
</linearGradient>
<linearGradient id="paint1_linear_724_4208" x1="456.906" y1="866.197" x2="445.69" y2="2701.65" gradientUnits="userSpaceOnUse">
<stop stop-color="#002A78"/>
<stop offset="0.390625" stop-color="#235DCA"/>
<stop offset="0.734375" stop-color="#6190E8"/>
<stop offset="1" stop-color="#A7BFE8"/>
</linearGradient>
<linearGradient id="paint2_linear_724_4208" x1="231.82" y1="746.864" x2="231.82" y2="1052.22" gradientUnits="userSpaceOnUse">
<stop stop-color="#CDEDFF"/>
<stop offset="0.526042" stop-color="#CDEDFF" stop-opacity="0.932292"/>
<stop offset="1" stop-color="#CDEDFF" stop-opacity="0"/>
</linearGradient>
<clipPath id="clip0_724_4208">
<rect width="1386" height="2727" fill="white" transform="translate(0.41748)"/>
</clipPath>
</defs>
</svg>
