<svg width="1386" height="2727" viewBox="0 0 1386 2727" fill="none" xmlns="http://www.w3.org/2000/svg">
<g clip-path="url(#clip0_724_4311)">
<rect width="1386" height="2727" fill="url(#paint0_linear_724_4311)"/>
<rect width="1386" height="2727" fill="white"/>
<path d="M1487.85 2758.6H-160.337L-109.694 749.314L122.673 651.83C125.8 650.519 129.181 649.928 132.567 650.102L1514.3 721.025L1487.85 2758.6Z" fill="url(#paint1_linear_724_4311)"/>
<path d="M307.546 537.169H193.805C187.686 537.169 182.726 542.129 182.726 548.248V555.047C182.726 560.059 185.118 564.769 189.164 567.727L202.866 577.741V659.25C202.866 660.902 202.409 662.521 201.547 663.931L123.427 791.631C106.337 819.567 126.441 855.432 159.189 855.432H346.645C379.922 855.432 399.934 818.524 381.779 790.637L299.279 663.909C298.331 662.453 297.827 660.753 297.827 659.015V577.803L311.993 567.777C316.152 564.833 318.625 560.054 318.625 554.958V548.248C318.625 542.129 313.665 537.169 307.546 537.169Z" fill="white" stroke="white" stroke-width="12.9043" stroke-linecap="round"/>
<path d="M138.039 800.58L206.175 691.9C213.886 683.418 224.682 707.807 256.297 715.033C283.286 721.202 317.215 718.889 332.637 747.142L367.177 800.203C378.53 817.644 366.015 840.724 345.205 840.724H160.252C139.643 840.724 127.092 818.041 138.039 800.58Z" fill="#235DCA"/>
<path d="M206.175 691.9L138.039 800.58C127.092 818.041 139.643 840.724 160.252 840.724H345.205C366.015 840.724 378.53 817.644 367.177 800.203L332.637 747.142M206.175 691.9C207.621 707.041 221.597 758.216 283.286 743.731C283.286 743.731 325.212 733.54 332.637 747.142M206.175 691.9C213.886 683.418 224.682 707.807 256.297 715.033C283.286 721.202 317.215 718.889 332.637 747.142" stroke="black" stroke-width="4.62665"/>
<path d="M205.405 690.131L215.429 693.216L238.562 708.638L250.9 714.807L272.491 718.662L293.311 722.518L307.191 726.373L317.987 731.771L325.698 738.711L296.395 740.253L267.865 746.422L245.502 743.338L224.682 731.771L213.116 714.807L205.405 690.131Z" fill="#002467"/>
<path d="M206.175 691.9L138.039 800.58C127.092 818.041 139.643 840.724 160.252 840.724H345.205C366.015 840.724 378.53 817.644 367.177 800.203L332.637 747.142M206.175 691.9C207.621 707.041 221.597 758.216 283.286 743.731C283.286 743.731 325.212 733.54 332.637 747.142M206.175 691.9C213.886 683.418 224.682 707.807 256.297 715.033C283.286 721.202 317.215 718.889 332.637 747.142" stroke="black" stroke-width="4.62665"/>
<circle cx="203.09" cy="775.724" r="14.651" fill="#4787FF" fill-opacity="0.78" stroke="black" stroke-width="4.39531"/>
<ellipse cx="303.335" cy="806.568" rx="8.48218" ry="8.48218" fill="#4787FF" fill-opacity="0.78" stroke="black" stroke-width="3.91485"/>
<circle cx="238.563" cy="812.737" r="2.31332" fill="black"/>
<circle cx="170.703" cy="811.195" r="2.31332" fill="black"/>
<circle cx="300.25" cy="760.302" r="2.31332" fill="black"/>
<path d="M307.546 543.621H193.805C191.25 543.621 189.178 545.693 189.178 548.248V555.047C189.178 558 190.587 560.775 192.971 562.518L209.318 574.465V659.25C209.318 662.09 208.533 664.875 207.051 667.298L128.931 794.998C114.472 818.634 131.481 848.98 159.189 848.98H346.645C374.8 848.98 391.733 817.752 376.372 794.157L293.872 667.429C292.242 664.926 291.375 662.002 291.375 659.015V574.465L308.265 562.511C310.716 560.776 312.173 557.96 312.173 554.958V548.248C312.173 545.693 310.101 543.621 307.546 543.621Z" fill="url(#paint2_linear_724_4311)" fill-opacity="0.35"/>
<path d="M291.375 574.465L308.265 562.511C310.716 560.776 312.173 557.96 312.173 554.958V548.248C312.173 545.693 310.101 543.621 307.546 543.621H193.805C191.25 543.621 189.178 545.693 189.178 548.248V555.047C189.178 558 190.587 560.775 192.971 562.518L209.318 574.465M291.375 574.465V659.015C291.375 662.002 292.242 664.926 293.872 667.429L376.372 794.157C391.733 817.752 374.8 848.98 346.645 848.98H159.189C131.481 848.98 114.472 818.634 128.931 794.998L207.051 667.298C208.533 664.875 209.318 662.09 209.318 659.25V574.465M291.375 574.465H277.889M209.318 574.465H237.792" stroke="black" stroke-width="4.62665" stroke-linecap="round"/>
<path opacity="0.8" d="M216.2 559.043V543.621H189.884V559.043L209.672 572.923V661.601L143.458 774.953C109.362 821.837 135.086 842.811 153.352 847.437C139.348 838.184 145.995 814.28 151.069 803.484L226.094 661.601V572.923L216.2 559.043Z" fill="white"/>
<path d="M345.82 750.984L341.121 742.567L378.905 798.858C390.009 828.469 365.54 844.611 351.917 848.98H297.168C343.165 842.303 368.479 791.566 345.82 750.984Z" fill="#48738B" fill-opacity="0.22"/>
<path fill-rule="evenodd" clip-rule="evenodd" d="M213.115 706.325H183.813V701.698H213.115C214.393 701.698 215.428 702.734 215.428 704.012C215.428 705.289 214.393 706.325 213.115 706.325Z" fill="black"/>
<path fill-rule="evenodd" clip-rule="evenodd" d="M200.778 731.001H168.392V726.374H200.778C202.056 726.374 203.091 727.41 203.091 728.687C203.091 729.965 202.056 731.001 200.778 731.001Z" fill="black"/>
<path fill-rule="evenodd" clip-rule="evenodd" d="M185.357 752.591H156.055V747.964H185.357C186.634 747.964 187.67 749 187.67 750.278C187.67 751.555 186.634 752.591 185.357 752.591Z" fill="black"/>
<path fill-rule="evenodd" clip-rule="evenodd" d="M173.019 774.182H143.717V769.556H173.019C174.297 769.556 175.333 770.591 175.333 771.869C175.333 773.147 174.297 774.182 173.019 774.182Z" fill="black"/>
<path d="M291.375 574.465L308.265 562.511C310.716 560.776 312.173 557.96 312.173 554.958V548.248C312.173 545.693 310.101 543.621 307.546 543.621H193.805C191.25 543.621 189.178 545.693 189.178 548.248V555.047C189.178 558 190.587 560.775 192.971 562.518L209.318 574.465M291.375 574.465V659.015C291.375 662.002 292.242 664.926 293.872 667.429L376.372 794.157C391.733 817.752 374.8 848.98 346.645 848.98H159.189C131.481 848.98 114.472 818.634 128.931 794.998L207.051 667.298C208.533 664.875 209.318 662.09 209.318 659.25V574.465M291.375 574.465H277.889M209.318 574.465H237.792" stroke="black" stroke-width="4.62665" stroke-linecap="round"/>
<circle cx="277.6" cy="396.967" r="6.45213" transform="rotate(-91.4412 277.6 396.967)" fill="black"/>
<circle cx="248.487" cy="529.155" r="3.22606" transform="rotate(-91.4412 248.487 529.155)" fill="black"/>
<circle cx="145.714" cy="397.349" r="3.22606" transform="rotate(-169.282 145.714 397.349)" fill="black"/>
<circle cx="222.679" cy="445.277" r="3.22606" transform="rotate(-91.4412 222.679 445.277)" fill="black"/>
<circle cx="158.727" cy="354.362" r="3.22606" transform="rotate(-91.4412 158.727 354.362)" fill="black"/>
<circle cx="209.774" cy="348.496" r="3.22606" transform="rotate(-91.4412 209.774 348.496)" fill="black"/>
<circle cx="128.295" cy="334.764" r="2.41955" transform="rotate(-91.4412 128.295 334.764)" fill="black"/>
<circle cx="176.687" cy="437.998" r="2.41955" transform="rotate(-91.4412 176.687 437.998)" fill="black"/>
<circle cx="276.348" cy="453.783" r="20.9694" transform="rotate(-91.4412 276.348 453.783)" fill="#A7BFE8" stroke="black" stroke-width="2.48035"/>
<circle cx="210.622" cy="494.515" r="13.497" transform="rotate(-91.4412 210.622 494.515)" fill="#6190E8" stroke="black" stroke-width="3.22606"/>
<circle cx="211.667" cy="398.78" r="14.5173" transform="rotate(-91.4412 211.667 398.78)" fill="#235DCA" stroke="black" stroke-width="3.22606"/>
</g>
<defs>
<linearGradient id="paint0_linear_724_4311" x1="693" y1="0" x2="693" y2="2620.2" gradientUnits="userSpaceOnUse">
<stop stop-color="#D94B4B"/>
<stop offset="0.782425" stop-color="white"/>
</linearGradient>
<linearGradient id="paint1_linear_724_4311" x1="595.206" y1="2579.24" x2="605.56" y2="668.001" gradientUnits="userSpaceOnUse">
<stop stop-color="#A7BFE8"/>
<stop offset="0.41488" stop-color="#6190E8"/>
<stop offset="0.6875" stop-color="#235DCA"/>
<stop offset="1" stop-color="#002A78"/>
</linearGradient>
<linearGradient id="paint2_linear_724_4311" x1="253.985" y1="543.621" x2="253.985" y2="848.98" gradientUnits="userSpaceOnUse">
<stop stop-color="#CDEDFF"/>
<stop offset="0.526042" stop-color="#CDEDFF" stop-opacity="0.932292"/>
<stop offset="1" stop-color="#CDEDFF" stop-opacity="0"/>
</linearGradient>
<clipPath id="clip0_724_4311">
<rect width="1386" height="2727" fill="white"/>
</clipPath>
</defs>
</svg>
