<svg width="47" height="53" viewBox="0 0 47 53" fill="none" xmlns="http://www.w3.org/2000/svg">
<path fill-rule="evenodd" clip-rule="evenodd" d="M32.9 4.1125V7.05H45.2375C45.7049 7.05 46.1532 7.23569 46.4838 7.56622C46.8143 7.89676 47 8.34506 47 8.8125C47 9.27994 46.8143 9.72824 46.4838 10.0588C46.1532 10.3893 45.7049 10.575 45.2375 10.575H1.7625C1.29506 10.575 0.846757 10.3893 0.516224 10.0588C0.185691 9.72824 0 9.27994 0 8.8125C0 8.34506 0.185691 7.89676 0.516224 7.56622C0.846757 7.23569 1.29506 7.05 1.7625 7.05H14.1V4.1125C14.1 1.8424 15.9424 0 18.2125 0H28.7875C31.0576 0 32.9 1.8424 32.9 4.1125ZM17.625 4.1125C17.625 3.95669 17.6869 3.80725 17.7971 3.69708C17.9073 3.5869 18.0567 3.525 18.2125 3.525H28.7875C28.9433 3.525 29.0927 3.5869 29.2029 3.69708C29.3131 3.80725 29.375 3.95669 29.375 4.1125V7.05H17.625V4.1125Z" fill="#9A9A9A"/>
<path d="M7.04529 14.5183C7.02519 14.2863 6.95931 14.0606 6.85144 13.8541C6.74358 13.6477 6.59587 13.4647 6.41686 13.3157C6.23785 13.1667 6.03108 13.0547 5.80851 12.9861C5.58594 12.9175 5.35198 12.8937 5.12015 12.916C4.88832 12.9384 4.66322 13.0065 4.45786 13.1164C4.25251 13.2262 4.07096 13.3757 3.92373 13.5562C3.77649 13.7366 3.66648 13.9445 3.60006 14.1677C3.53363 14.391 3.51211 14.6251 3.53673 14.8567L6.85493 49.1621C6.95418 50.1789 7.42835 51.1223 8.1851 51.8087C8.94185 52.4951 9.92698 52.8752 10.9486 52.875H36.056C37.0781 52.8752 38.0635 52.4947 38.8203 51.8078C39.5771 51.121 40.051 50.1769 40.1497 49.1597L43.4703 14.8567C43.5152 14.3912 43.3732 13.9268 43.0758 13.5659C42.7783 13.205 42.3496 12.977 41.884 12.9321C41.4185 12.8872 40.9541 13.0291 40.5932 13.3266C40.2322 13.6241 40.0043 14.0528 39.9594 14.5183L36.6412 48.819C36.6272 48.9644 36.5594 49.0994 36.4512 49.1976C36.3431 49.2958 36.2021 49.3501 36.056 49.3501H10.9486C10.8025 49.3501 10.6616 49.2958 10.5534 49.1976C10.4452 49.0994 10.3775 48.9644 10.3635 48.819L7.04529 14.5183Z" fill="#9A9A9A"/>
<path d="M16.9346 17.6274C17.1658 17.6138 17.3974 17.6458 17.6162 17.7217C17.835 17.7975 18.0367 17.9158 18.2097 18.0696C18.3828 18.2235 18.5238 18.41 18.6248 18.6184C18.7258 18.8268 18.7847 19.053 18.7982 19.2842L19.9732 39.2592C20.0006 39.7263 19.8413 40.1852 19.5304 40.5349C19.2195 40.8846 18.7824 41.0965 18.3153 41.1239C17.8481 41.1513 17.3892 40.9921 17.0395 40.6812C16.6898 40.3702 16.478 39.9331 16.4505 39.466L15.2755 19.491C15.2619 19.2598 15.2939 19.0282 15.3698 18.8094C15.4456 18.5907 15.5639 18.389 15.7177 18.2159C15.8716 18.0428 16.0581 17.9018 16.2665 17.8008C16.4749 17.6998 16.7035 17.6409 16.9346 17.6274ZM31.7232 19.491C31.7506 19.0239 31.5913 18.565 31.2804 18.2153C30.9695 17.8656 30.5324 17.6537 30.0653 17.6263C29.5981 17.5988 29.1392 17.7581 28.7895 18.069C28.4398 18.38 28.228 18.8171 28.2005 19.2842L27.0255 39.2592C26.9981 39.726 27.1573 40.1846 27.468 40.5341C27.7787 40.8836 28.2155 41.0953 28.6823 41.1227C29.1491 41.1502 29.6077 40.991 29.9572 40.6803C30.3067 40.3696 30.5184 39.9328 30.5458 39.466L31.7232 19.491Z" fill="#9A9A9A"/>
</svg>
