<svg width="99" height="195" viewBox="0 0 99 195" fill="none" xmlns="http://www.w3.org/2000/svg">
<path d="M66.3328 93.5091H31.0758C29.1792 93.5091 27.6416 95.0466 27.6416 96.9432V99.0509C27.6416 100.604 28.383 102.065 29.6372 102.981L33.8844 106.086V131.351C33.8844 131.863 33.743 132.365 33.4758 132.802L9.26031 172.386C3.96308 181.045 10.1947 192.163 20.3456 192.163H78.4525C88.7674 192.163 94.9708 180.722 89.3432 172.078L63.7703 132.795C63.4764 132.344 63.32 131.817 63.32 131.278V106.105L67.7111 102.997C69.0005 102.084 69.7669 100.603 69.7669 99.0232V96.9432C69.7669 95.0466 68.2294 93.5091 66.3328 93.5091Z" fill="white" stroke="white" stroke-width="4" stroke-linecap="round"/>
<path d="M13.7897 175.16L34.9102 141.472C37.3004 138.843 40.6467 146.403 50.4467 148.643C58.8126 150.555 69.3296 149.838 74.1101 158.596L84.8168 175.043C88.3359 180.449 84.4565 187.604 78.0059 187.604H20.6752C14.287 187.604 10.3964 180.573 13.7897 175.16Z" fill="#235DCA"/>
<path d="M34.9102 141.472L13.7897 175.16C10.3964 180.573 14.287 187.604 20.6752 187.604H78.0059C84.4565 187.604 88.3359 180.449 84.8168 175.043L74.1101 158.596M34.9102 141.472C35.3585 146.165 39.6906 162.028 58.8126 157.538C58.8126 157.538 71.8086 154.379 74.1101 158.596M34.9102 141.472C37.3004 138.843 40.6467 146.403 50.4467 148.643C58.8126 150.555 69.3296 149.838 74.1101 158.596" stroke="black" stroke-width="1.43415"/>
<path d="M34.6713 140.924L37.7786 141.88L44.9494 146.66L48.7738 148.572L55.4664 149.768L61.9201 150.963L66.2225 152.158L69.5689 153.831L71.9591 155.982L62.8762 156.46L54.0323 158.372L47.1006 157.416L40.6469 153.831L37.0616 148.572L34.6713 140.924Z" fill="#002467"/>
<path d="M34.9102 141.472L13.7897 175.16C10.3964 180.573 14.287 187.604 20.6752 187.604H78.0059C84.4565 187.604 88.3359 180.449 84.8168 175.043L74.1101 158.596M34.9102 141.472C35.3585 146.165 39.6906 162.028 58.8126 157.538C58.8126 157.538 71.8086 154.379 74.1101 158.596M34.9102 141.472C37.3004 138.843 40.6467 146.403 50.4467 148.643C58.8126 150.555 69.3296 149.838 74.1101 158.596" stroke="black" stroke-width="1.43415"/>
<circle cx="33.9539" cy="167.455" r="4.54146" fill="#4787FF" fill-opacity="0.78" stroke="black" stroke-width="1.36244"/>
<ellipse cx="65.0273" cy="177.016" rx="2.62927" ry="2.62927" fill="#4787FF" fill-opacity="0.78" stroke="black" stroke-width="1.21351"/>
<circle cx="44.9492" cy="178.929" r="0.717073" fill="black"/>
<circle cx="23.9147" cy="178.45" r="0.717073" fill="black"/>
<circle cx="64.071" cy="162.675" r="0.717073" fill="black"/>
<path d="M66.3328 95.5091H31.0758C30.2837 95.5091 29.6416 96.1512 29.6416 96.9432V99.0509C29.6416 99.9661 30.0784 100.826 30.8174 101.367L35.8844 105.07V131.351C35.8844 132.231 35.6413 133.095 35.1819 133.846L10.9664 173.43C6.48442 180.756 11.757 190.163 20.3456 190.163H78.4525C87.1799 190.163 92.4285 180.483 87.667 173.169L62.0941 133.886C61.5889 133.11 61.32 132.204 61.32 131.278V105.07L66.5557 101.364C67.3153 100.827 67.7669 99.954 67.7669 99.0232V96.9432C67.7669 96.1512 67.1248 95.5091 66.3328 95.5091Z" fill="url(#paint0_linear_351_10162)" fill-opacity="0.35"/>
<path d="M61.32 105.07L66.5557 101.364C67.3153 100.827 67.7669 99.954 67.7669 99.0232V96.9432C67.7669 96.1512 67.1248 95.5091 66.3328 95.5091H31.0758C30.2837 95.5091 29.6416 96.1512 29.6416 96.9432V99.0509C29.6416 99.9661 30.0785 100.826 30.8174 101.367L35.8844 105.07M61.32 105.07V131.278C61.32 132.204 61.5889 133.11 62.0941 133.886L87.667 173.169C92.4285 180.483 87.1799 190.163 78.4525 190.163H20.3456C11.757 190.163 6.48442 180.756 10.9664 173.43L35.1819 133.846C35.6413 133.095 35.8844 132.231 35.8844 131.351V105.07M61.32 105.07H57.1398M35.8844 105.07H44.7106" stroke="black" stroke-width="1.43415" stroke-linecap="round"/>
<path opacity="0.8" d="M38.0176 100.29V95.5091H29.8601V100.29L35.9939 104.592V132.08L15.4693 167.216C4.90029 181.749 12.8742 188.25 18.5362 189.685C14.1953 186.816 16.2557 179.407 17.8284 176.06L41.0845 132.08V104.592L38.0176 100.29Z" fill="white"/>
<path d="M78.1967 159.786L76.74 157.177L88.4522 174.626C91.8941 183.805 84.3091 188.808 80.0863 190.163H63.1156C77.3735 188.093 85.2202 172.366 78.1967 159.786Z" fill="#48738B" fill-opacity="0.22"/>
<path fill-rule="evenodd" clip-rule="evenodd" d="M37.0617 145.943H27.9788V144.509H37.0617C37.4577 144.509 37.7788 144.83 37.7788 145.226C37.7788 145.622 37.4577 145.943 37.0617 145.943Z" fill="black"/>
<path fill-rule="evenodd" clip-rule="evenodd" d="M33.2374 153.592H23.1984V152.158H33.2374C33.6334 152.158 33.9545 152.479 33.9545 152.875C33.9545 153.271 33.6334 153.592 33.2374 153.592Z" fill="black"/>
<path fill-rule="evenodd" clip-rule="evenodd" d="M28.4567 160.285H19.3738V158.85H28.4567C28.8527 158.85 29.1738 159.172 29.1738 159.568C29.1738 159.964 28.8527 160.285 28.4567 160.285Z" fill="black"/>
<path fill-rule="evenodd" clip-rule="evenodd" d="M24.6327 166.977H15.5497V165.543H24.6327C25.0287 165.543 25.3497 165.864 25.3497 166.26C25.3497 166.656 25.0287 166.977 24.6327 166.977Z" fill="black"/>
<path d="M61.3199 105.07L66.5555 101.364C67.3152 100.827 67.7668 99.9539 67.7668 99.0232V96.9432C67.7668 96.1512 67.1247 95.5091 66.3326 95.5091H31.0757C30.2836 95.5091 29.6415 96.1512 29.6415 96.9432V99.0509C29.6415 99.9661 30.0783 100.826 30.8173 101.367L35.8843 105.07M61.3199 105.07V131.278C61.3199 132.204 61.5888 133.11 62.094 133.886L87.6669 173.169C92.4284 180.483 87.1798 190.163 78.4523 190.163H20.3455C11.7568 190.163 6.4843 180.756 10.9663 173.43L35.1817 133.846C35.6412 133.095 35.8843 132.231 35.8843 131.351V105.07M61.3199 105.07H57.1397M35.8843 105.07H44.7104" stroke="black" stroke-width="1.43415" stroke-linecap="round"/>
<circle cx="56.0506" cy="46.0496" r="2" transform="rotate(-91.4412 56.0506 46.0496)" fill="black"/>
<circle cx="55.5634" cy="30.5621" r="1.5" transform="rotate(-91.4412 55.5634 30.5621)" fill="black"/>
<circle cx="22.538" cy="18.5372" r="1.5" transform="rotate(-91.4412 22.538 18.5372)" fill="black"/>
<circle cx="47.0263" cy="87.0248" r="1" transform="rotate(-91.4412 47.0263 87.0248)" fill="black"/>
<circle cx="15.1692" cy="46.1684" r="1" transform="rotate(-169.282 15.1692 46.1684)" fill="black"/>
<circle cx="39.0263" cy="61.0248" r="1" transform="rotate(-91.4412 39.0263 61.0248)" fill="black"/>
<circle cx="19.203" cy="32.8433" r="1" transform="rotate(-91.4412 19.203 32.8433)" fill="black"/>
<circle cx="35.0263" cy="31.0248" r="1" transform="rotate(-91.4412 35.0263 31.0248)" fill="black"/>
<circle cx="9.76996" cy="26.7686" r="0.75" transform="rotate(-91.4412 9.76996 26.7686)" fill="black"/>
<circle cx="27.77" cy="10.7686" r="0.75" transform="rotate(-91.4412 27.77 10.7686)" fill="black"/>
<circle cx="24.77" cy="58.7685" r="0.75" transform="rotate(-91.4412 24.77 58.7685)" fill="black"/>
<circle cx="26.77" cy="0.768575" r="0.75" transform="rotate(-91.4412 26.77 0.768575)" fill="black"/>
<circle cx="55.6626" cy="63.6614" r="6.5" transform="rotate(-91.4412 55.6626 63.6614)" fill="#A7BFE8" stroke="black" stroke-width="0.768847"/>
<circle cx="38.9189" cy="15.9175" r="6.75" transform="rotate(-91.4412 38.9189 15.9175)" fill="#002A78" stroke="black"/>
<circle cx="35.2891" cy="76.2876" r="4.18374" transform="rotate(-91.4412 35.2891 76.2876)" fill="#719EEB" stroke="black"/>
<circle cx="35.6129" cy="46.6117" r="4.5" transform="rotate(-91.4412 35.6129 46.6117)" fill="#235DCA" stroke="black"/>
<defs>
<linearGradient id="paint0_linear_351_10162" x1="49.7301" y1="95.5091" x2="49.7301" y2="190.163" gradientUnits="userSpaceOnUse">
<stop stop-color="#CDEDFF"/>
<stop offset="0.526042" stop-color="#CDEDFF" stop-opacity="0.932292"/>
<stop offset="1" stop-color="#CDEDFF" stop-opacity="0"/>
</linearGradient>
</defs>
</svg>
