<svg width="67" height="61" viewBox="0 0 67 61" fill="none" xmlns="http://www.w3.org/2000/svg">
<mask id="mask0_209_1954" style="mask-type:alpha" maskUnits="userSpaceOnUse" x="2" y="4" width="57" height="53">
<path d="M2.58481 34.946L17.9818 27.1033L29.0425 48.8182L13.6455 56.6606L2.58481 34.946Z" fill="#D9D9D9"/>
<path d="M14.8743 15.9151L37.8464 4.21387L58.6602 45.0763L35.6881 56.7775L14.8743 15.9151Z" fill="#D9D9D9"/>
</mask>
<g mask="url(#mask0_209_1954)">
<mask id="mask1_209_1954" style="mask-type:alpha" maskUnits="userSpaceOnUse" x="5" y="4" width="59" height="61">
<path d="M12.239 4.3269L63.766 10.9975L60.4509 36.6042L8.92395 29.9336L12.239 4.3269Z" fill="#D9D9D9"/>
<path d="M8.50916 31.8197L60.0363 38.4904L56.7212 64.0971L5.19415 57.4265L8.50916 31.8197Z" fill="#D9D9D9"/>
</mask>
<g mask="url(#mask1_209_1954)">
<path d="M26.2924 37.1614L33.3541 26.5316L39.3048 37.1614H26.2924Z" stroke="black" stroke-width="0.597206"/>
<path d="M36.9532 10.8502H30.935L20.0483 26.3976L18.6874 28.341L18.6024 28.4625L18.5174 28.5839L18.3472 28.8269L18.007 29.3127L17.3266 30.2845L14.605 34.1712L9.16162 41.9448L11.4242 46.181L50.1378 46.8918L53.4962 41.7819L36.9532 10.8502Z" stroke="black" stroke-width="0.424815"/>
<path d="M11.4239 46.1773L9.96761 43.4552L9.15189 41.9304L42.1798 42.3549L32.8398 25.6173L36.4453 20.4727L50.1356 46.8549L11.4239 46.1773Z" fill="url(#paint0_linear_209_1954)"/>
<path fill-rule="evenodd" clip-rule="evenodd" d="M9.15366 41.9298L11.4256 46.1767L50.1376 46.8545L36.2781 20.5005L32.8416 25.6168L42.1818 42.3546L9.15366 41.9298ZM33.3671 25.6741L42.921 42.7947L9.87783 42.3699L11.6864 45.7506L49.414 46.4111L36.1887 21.251L33.3671 25.6741Z" fill="black"/>
<path d="M53.4896 41.7769L50.1379 46.8545L36.6158 21.5768L24.095 40.544L17.9188 38.5993L36.9554 10.86L53.4896 41.7769Z" fill="url(#paint1_linear_209_1954)"/>
<path d="M53.4896 41.7769L50.1379 46.8545L36.6158 21.5768L24.095 40.544L17.9188 38.5993L36.9554 10.86L53.4896 41.7769Z" fill="url(#paint2_linear_209_1954)"/>
<path fill-rule="evenodd" clip-rule="evenodd" d="M50.1379 46.8545L53.4896 41.7769L36.9554 10.86L17.9188 38.5993L24.095 40.544L36.6158 21.5768L50.1379 46.8545ZM23.9144 40.0353L36.6547 20.7357L50.1768 46.0134L52.9887 41.7537L36.9097 11.6883L18.6036 38.3632L23.9144 40.0353Z" fill="black"/>
<path d="M42.2835 42.3996L9.15454 41.9634L30.9265 10.8658H36.9545L18.896 37.1908H39.3047L42.2835 42.3996Z" fill="url(#paint3_linear_209_1954)"/>
<path d="M42.2835 42.3996L9.15454 41.9634L30.9265 10.8658H36.9545L18.896 37.1908H39.3047L42.2835 42.3996Z" fill="url(#paint4_linear_209_1954)"/>
<path d="M42.2835 42.3996L9.15454 41.9634L30.9265 10.8658H36.9545L18.896 37.1908H39.3047L42.2835 42.3996Z" fill="url(#paint5_linear_209_1954)"/>
<path fill-rule="evenodd" clip-rule="evenodd" d="M36.9545 10.8658H30.9265L9.15454 41.9634L42.2835 42.3996L39.3047 37.1908H18.896L36.9545 10.8658ZM39.0549 37.6217H18.0776L36.1362 11.2968L31.1509 11.2968L9.97484 41.5431L41.5348 41.9588L39.0549 37.6217Z" fill="black"/>
<path d="M18.5538 28.9684L27.3118 46.2689" stroke="black" stroke-width="0.41866"/>
<path d="M20.4714 25.9873L30.8208 46.4801" stroke="black" stroke-width="0.41866"/>
<path d="M18.5236 28.4016L27.7771 46.5487" stroke="black" stroke-width="0.24627"/>
<path d="M20.1 25.9713L30.6866 46.6858" stroke="black" stroke-width="0.24627"/>
<path d="M17.1489 30.9316L19.6763 31.2732" stroke="black" stroke-width="0.95631"/>
<path d="M15.5778 32.9125L21.3157 33.7323" stroke="black" stroke-width="0.95631"/>
<path d="M22.9551 31.5464L29.7859 32.4344" stroke="black" stroke-width="0.95631"/>
<path d="M37.0264 33.1858L49.5265 34.8934" stroke="black" stroke-width="0.95631"/>
<path d="M38.8024 36.0548L51.3029 37.6257" stroke="black" stroke-width="0.95631"/>
<path d="M23.7751 33.8688L28.1468 34.4154" stroke="black" stroke-width="0.95631"/>
</g>
</g>
<path fill-rule="evenodd" clip-rule="evenodd" d="M13.4391 16.114L22.7094 20.9751L22.415 21.5367L14.8835 17.5874L24.4543 36.7588L34.0251 55.9306L36.5572 50.5833L36.5582 50.5814L37.745 48.096L38.3174 48.3692L37.1289 50.8576L34.0329 57.3656L13.4391 16.114Z" fill="black"/>
<path d="M47.8549 28.6736L47.2805 28.4049L52.3709 17.5217L44.0112 21.5416L43.7363 20.97L53.6988 16.1796L47.8549 28.6736Z" fill="black"/>
<path d="M16.6785 27.9082L7.11536 30.8454L59.0294 37.4711L49.3297 31.2553" stroke="black" stroke-width="0.546463" stroke-miterlimit="16" stroke-linecap="square"/>
<path d="M13.9491 51.7188V49.1233C13.9491 48.9073 13.9031 48.753 13.8111 48.661C13.7236 48.5644 13.5879 48.5161 13.4038 48.5161H10.7879V47.5428H13.4522C14.0043 47.5428 14.4185 47.6669 14.6946 47.9156C14.9753 48.1642 15.1156 48.5412 15.1156 49.0475V51.7188H13.9491ZM10.7672 51.7188V50.7455H11.2296C11.2986 50.7455 11.3538 50.727 11.3953 50.6905C11.4367 50.6489 11.4574 50.5868 11.4574 50.5039V47.8189H12.6239V50.4144C12.6239 50.8468 12.5273 51.1736 12.334 51.3944C12.1407 51.6108 11.8462 51.7188 11.4505 51.7188H10.7672ZM18.6607 46.8735C18.6193 47.0346 18.5664 47.2184 18.5019 47.4254C18.4375 47.6328 18.3685 47.8397 18.2949 48.0467C18.2213 48.2537 18.1453 48.4427 18.0671 48.6127H17.2319C17.2779 48.4148 17.3217 48.2101 17.3631 47.9984C17.4045 47.782 17.4436 47.5703 17.4804 47.3633C17.5218 47.1516 17.5517 46.9607 17.5701 46.7906H18.6124L18.6607 46.8735ZM17.018 46.8735C16.9765 47.0346 16.9236 47.2184 16.8592 47.4254C16.7948 47.6328 16.7257 47.8397 16.6521 48.0467C16.5785 48.2537 16.5026 48.4427 16.4244 48.6127H15.5961C15.6283 48.4654 15.6605 48.3134 15.6927 48.1571C15.7249 47.9961 15.7548 47.8374 15.7825 47.6811C15.8147 47.52 15.8423 47.3633 15.8652 47.2117C15.8929 47.0597 15.9136 46.9195 15.9274 46.7906H16.9697L17.018 46.8735ZM21.5509 47.4737C21.8684 47.4737 22.1399 47.5428 22.3654 47.6811C22.5954 47.8189 22.7703 48.0122 22.8899 48.2608C23.0096 48.509 23.0694 48.8036 23.0694 49.1442V51.7188H20.8538V50.7455H21.9029V49.3445C21.9029 49.0361 21.8477 48.815 21.7373 48.6819C21.6268 48.5483 21.4635 48.4815 21.2472 48.4815C21.0815 48.4815 20.9366 48.5232 20.8123 48.6057C20.6927 48.6885 20.5938 48.8197 20.5155 48.9992C20.4373 49.174 20.3798 49.3995 20.343 49.6756L20.0807 51.7188H18.9073L19.2386 49.0892L18.9142 47.5428H20.0876L20.2119 48.2192H20.2395C20.2809 48.1595 20.3338 48.088 20.3982 48.0055C20.4626 47.9179 20.5454 47.835 20.6467 47.7569C20.7479 47.674 20.8721 47.6072 21.0194 47.5566C21.1666 47.5016 21.3438 47.4737 21.5509 47.4737ZM26.6577 51.7188L24.9666 49.2341L23.6966 47.5428H25.0288L26.6577 49.9309L27.9829 51.7188H26.6577ZM23.8691 51.7188V50.5039C23.8691 50.1866 23.9244 49.8987 24.0348 49.641C24.1498 49.379 24.3201 49.1717 24.5456 49.02C24.7757 48.868 25.0563 48.7922 25.3877 48.7922L25.6845 49.5306C25.528 49.5306 25.4015 49.5699 25.3048 49.6481C25.2082 49.7215 25.1369 49.8323 25.0909 49.9792C25.0495 50.1265 25.0288 50.3083 25.0288 50.5248V51.7188H23.8691ZM26.2781 50.3865L25.9675 49.6481C26.1285 49.6481 26.255 49.6112 26.3471 49.5377C26.4437 49.4596 26.5127 49.3468 26.5541 49.1995C26.5956 49.0522 26.6163 48.8727 26.6163 48.661V47.5428H27.7759V48.6819C27.7759 48.9945 27.7184 49.2801 27.6033 49.5377C27.4929 49.7954 27.3272 50.0024 27.1063 50.1587C26.8854 50.3107 26.6094 50.3865 26.2781 50.3865Z" fill="black"/>
<defs>
<linearGradient id="paint0_linear_209_1954" x1="36.2239" y1="23.7446" x2="35.1363" y2="47.0837" gradientUnits="userSpaceOnUse">
<stop stop-color="#881014"/>
<stop offset="0.348958" stop-color="#EB3434"/>
<stop offset="1" stop-color="#EEDA39"/>
</linearGradient>
<linearGradient id="paint1_linear_209_1954" x1="19.8199" y1="37.5809" x2="35.3747" y2="17.7288" gradientUnits="userSpaceOnUse">
<stop stop-color="#0F3E5A"/>
<stop offset="1" stop-color="#006BAB"/>
</linearGradient>
<linearGradient id="paint2_linear_209_1954" x1="49.1421" y1="39.7679" x2="33.1758" y2="34.1617" gradientUnits="userSpaceOnUse">
<stop stop-color="#449F6D"/>
<stop offset="0.985444" stop-color="#006BAB" stop-opacity="0"/>
</linearGradient>
<linearGradient id="paint3_linear_209_1954" x1="29.7943" y1="16.2941" x2="40.5138" y2="40.3017" gradientUnits="userSpaceOnUse">
<stop stop-color="#EEDA39"/>
<stop offset="1" stop-color="#E8494F"/>
</linearGradient>
<linearGradient id="paint4_linear_209_1954" x1="32.8527" y1="11.3742" x2="25.6234" y2="28.3454" gradientUnits="userSpaceOnUse">
<stop stop-color="#449F6D"/>
<stop offset="1" stop-color="#EDCB3B" stop-opacity="0"/>
</linearGradient>
<linearGradient id="paint5_linear_209_1954" x1="49.0827" y1="52.2841" x2="31.1019" y2="41.4266" gradientUnits="userSpaceOnUse">
<stop stop-color="#A21C21"/>
<stop offset="1" stop-opacity="0"/>
</linearGradient>
</defs>
</svg>
