<svg width="371" height="365" viewBox="0 0 371 365" fill="none" xmlns="http://www.w3.org/2000/svg">
<g filter="url(#filter0_f_209_3710)">
<ellipse cx="186.593" cy="182.354" rx="92.1687" ry="88.0356" fill="#6190E8" fill-opacity="0.61"/>
</g>
<path d="M191.983 97.4117H131.018C128.543 97.4117 126.538 99.4175 126.538 101.892V105.536C126.538 107.757 127.598 109.844 129.391 111.155L137.333 116.96V161.388C137.333 162.542 137.014 163.674 136.412 164.658L94.5391 233.106C85.9737 247.107 96.05 265.084 112.464 265.084H212.94C229.619 265.084 239.649 246.585 230.549 232.607L186.33 164.682C185.667 163.664 185.315 162.477 185.315 161.263V116.979L193.524 111.169C195.367 109.865 196.463 107.747 196.463 105.488V101.892C196.463 99.4175 194.457 97.4117 191.983 97.4117Z" fill="white" stroke="white" stroke-width="4" stroke-linecap="round"/>
<mask id="mask0_209_3710" style="mask-type:alpha" maskUnits="userSpaceOnUse" x="199" y="123" width="88" height="124">
<path d="M199.232 123.384H286.855V246.551L236.017 245.724L224.444 227.539L201.299 191.167L199.232 123.384Z" fill="#D9D9D9"/>
</mask>
<g mask="url(#mask0_209_3710)">
<path d="M249.403 132.13H210.445C208.465 132.13 206.86 133.735 206.86 135.715V138.044C206.86 139.693 207.647 141.244 208.979 142.217L213.758 145.71V173.735C213.758 174.339 213.591 174.932 213.276 175.448L186.518 219.187C180.75 228.615 187.535 240.72 198.588 240.72H262.795C274.026 240.72 280.78 228.264 274.653 218.851L246.395 175.445C246.048 174.912 245.864 174.29 245.864 173.654V145.729L250.805 142.233L249.649 140.6L250.805 142.233C252.174 141.264 252.988 139.69 252.988 138.013V135.715C252.988 133.735 251.383 132.13 249.403 132.13Z" fill="white" stroke="white" stroke-width="4" stroke-linecap="round"/>
<path d="M191.344 222.143L214.682 184.918C217.323 182.013 221.021 190.367 231.849 192.842C241.093 194.955 252.715 194.162 257.997 203.839L269.828 222.014C273.716 227.987 269.429 235.893 262.302 235.893H198.952C191.894 235.893 187.595 228.123 191.344 222.143Z" fill="#6190E8"/>
<path d="M214.682 184.918L191.344 222.143C187.595 228.123 191.894 235.893 198.952 235.893H262.302C269.429 235.893 273.716 227.987 269.828 222.014L257.997 203.839M214.682 184.918C215.177 190.104 219.964 207.632 241.093 202.671C241.093 202.671 255.454 199.18 257.997 203.839M214.682 184.918C217.323 182.013 221.021 190.367 231.849 192.842C241.093 194.955 252.715 194.162 257.997 203.839" stroke="black" stroke-width="1.5847"/>
<path d="M214.418 184.312L217.851 185.369L225.775 190.651L230.001 192.764L237.396 194.085L244.527 195.405L249.281 196.726L252.979 198.575L255.62 200.952L245.583 201.48L235.811 203.593L228.152 202.536L221.021 198.575L217.059 192.764L214.418 184.312Z" fill="#073C9F"/>
<path d="M214.682 184.918L191.344 222.143C187.595 228.123 191.894 235.893 198.952 235.893H262.302C269.429 235.893 273.716 227.987 269.828 222.014L257.997 203.839M214.682 184.918C215.177 190.104 219.964 207.632 241.093 202.671C241.093 202.671 255.454 199.18 257.997 203.839M214.682 184.918C217.323 182.013 221.021 190.367 231.849 192.842C241.093 194.955 252.715 194.162 257.997 203.839" stroke="black" stroke-width="1.5847"/>
<circle cx="213.625" cy="213.629" r="5.01822" fill="#A0C6FF" fill-opacity="0.63" stroke="black" stroke-width="1.50547"/>
<circle cx="247.961" cy="224.194" r="2.90529" fill="#A0C6FF" fill-opacity="0.63" stroke="black" stroke-width="1.3409"/>
<circle cx="225.774" cy="226.307" r="0.792351" fill="black"/>
<circle cx="202.532" cy="225.779" r="0.792351" fill="black"/>
<circle cx="246.904" cy="208.347" r="0.792351" fill="black"/>
<path d="M249.403 133.338H210.445C209.132 133.338 208.068 134.402 208.068 135.715V138.044C208.068 139.308 208.671 140.496 209.691 141.242L214.966 145.097V173.735C214.966 174.562 214.737 175.372 214.306 176.078L187.548 219.817C182.273 228.441 188.479 239.513 198.588 239.513H262.795C273.067 239.513 279.245 228.119 273.641 219.51L245.383 176.104C244.909 175.375 244.656 174.524 244.656 173.654V145.105L250.107 141.247C251.156 140.504 251.78 139.299 251.78 138.013V135.715C251.78 134.402 250.716 133.338 249.403 133.338Z" fill="url(#paint0_linear_209_3710)" fill-opacity="0.35" stroke="black" stroke-width="1.5847" stroke-linecap="round"/>
<path opacity="0.8" d="M218.116 139.412V134.13H209.102V139.412L215.88 144.166V174.54L193.2 213.365C181.522 229.423 190.333 236.607 196.589 238.192C191.793 235.023 194.069 226.835 195.807 223.137L221.505 187.482V144.166L218.116 139.412Z" fill="white"/>
<path d="M262.512 205.155L260.902 202.272L273.844 221.553C277.647 231.695 269.266 237.224 264.6 238.72H245.848C261.602 236.433 270.273 219.055 262.512 205.155Z" fill="#48738B" fill-opacity="0.22"/>
<path fill-rule="evenodd" clip-rule="evenodd" d="M217.059 189.859H207.022V188.274H217.059C217.496 188.274 217.851 188.629 217.851 189.066C217.851 189.504 217.496 189.859 217.059 189.859Z" fill="black"/>
<path fill-rule="evenodd" clip-rule="evenodd" d="M212.834 198.31H201.741V196.726H212.834C213.271 196.726 213.626 197.08 213.626 197.518C213.626 197.956 213.271 198.31 212.834 198.31Z" fill="black"/>
<path fill-rule="evenodd" clip-rule="evenodd" d="M207.551 205.706H197.515V204.121H207.551C207.989 204.121 208.343 204.476 208.343 204.913C208.343 205.351 207.989 205.706 207.551 205.706Z" fill="black"/>
<path fill-rule="evenodd" clip-rule="evenodd" d="M203.325 213.101H193.289V211.516H203.325C203.763 211.516 204.117 211.871 204.117 212.309C204.117 212.746 203.763 213.101 203.325 213.101Z" fill="black"/>
<path d="M243.864 144.695L249.649 140.6C250.489 140.006 250.988 139.041 250.988 138.013V135.715C250.988 134.839 250.278 134.13 249.403 134.13H210.445C209.569 134.13 208.86 134.839 208.86 135.715V138.044C208.86 139.055 209.343 140.006 210.159 140.602L215.758 144.695M243.864 144.695V173.654C243.864 174.678 244.161 175.679 244.719 176.536L272.977 219.942C278.238 228.024 272.439 238.72 262.795 238.72H198.588C189.098 238.72 183.272 228.326 188.224 220.231L214.982 176.491C215.489 175.661 215.758 174.707 215.758 173.735V144.695M243.864 144.695H239.245M215.758 144.695H225.511" stroke="black" stroke-width="1.5847" stroke-linecap="round"/>
<circle cx="266.189" cy="140.743" r="1.65325" fill="black"/>
</g>
<path d="M101.127 237.142L137.648 178.889C141.781 174.343 147.568 187.415 164.513 191.289C178.979 194.595 197.165 193.355 205.431 208.499L223.945 236.94C230.03 246.288 223.322 258.659 212.168 258.659H113.033C101.987 258.659 95.2596 246.501 101.127 237.142Z" fill="#6190E8"/>
<path d="M137.648 178.889L101.127 237.142C95.2596 246.501 101.987 258.659 113.033 258.659H212.168C223.322 258.659 230.03 246.288 223.945 236.94L205.431 208.499M137.648 178.889C138.423 187.005 145.914 214.434 178.979 206.671C178.979 206.671 201.452 201.208 205.431 208.499M137.648 178.889C141.781 174.343 147.568 187.415 164.513 191.289C178.979 194.595 197.165 193.355 205.431 208.499" stroke="black" stroke-width="2.47988"/>
<path d="M137.235 177.941L142.608 179.594L155.007 187.861L161.62 191.167L173.193 193.234L184.353 195.3L191.792 197.367L197.579 200.26L201.712 203.98L186.006 204.806L170.713 208.113L158.727 206.46L147.568 200.26L141.368 191.167L137.235 177.941Z" fill="#073C9F"/>
<path d="M137.648 178.889L101.127 237.142C95.2596 246.501 101.987 258.659 113.033 258.659H212.168C223.322 258.659 230.03 246.288 223.945 236.94L205.431 208.499M137.648 178.889C138.423 187.005 145.914 214.434 178.979 206.671C178.979 206.671 201.452 201.208 205.431 208.499M137.648 178.889C141.781 174.343 147.568 187.415 164.513 191.289C178.979 194.595 197.165 193.355 205.431 208.499" stroke="black" stroke-width="2.47988"/>
<circle cx="135.994" cy="223.819" r="7.85294" fill="#A0C6FF" fill-opacity="0.63" stroke="black" stroke-width="2.35588"/>
<circle cx="189.726" cy="240.351" r="4.54644" fill="#A0C6FF" fill-opacity="0.63" stroke="black" stroke-width="2.09836"/>
<circle cx="155.007" cy="243.658" r="1.23994" fill="black"/>
<circle cx="118.635" cy="242.831" r="1.23994" fill="black"/>
<circle cx="188.072" cy="215.553" r="1.23994" fill="black"/>
<path d="M191.983 99.4117H131.018C129.648 99.4117 128.538 100.522 128.538 101.892V105.536C128.538 107.119 129.293 108.606 130.571 109.54L139.333 115.944V161.388C139.333 162.911 138.912 164.404 138.118 165.702L96.2452 234.15C88.4951 246.818 97.6122 263.084 112.464 263.084H212.94C228.031 263.084 237.107 246.346 228.873 233.698L184.654 165.773C183.78 164.431 183.315 162.864 183.315 161.263V115.944L192.368 109.537C193.682 108.607 194.463 107.098 194.463 105.488V101.892C194.463 100.522 193.352 99.4117 191.983 99.4117Z" fill="url(#paint1_linear_209_3710)" fill-opacity="0.35"/>
<path d="M183.315 115.944L192.368 109.537C193.682 108.607 194.463 107.098 194.463 105.488V101.892C194.463 100.522 193.352 99.4117 191.983 99.4117H131.018C129.648 99.4117 128.538 100.522 128.538 101.892V105.536C128.538 107.119 129.293 108.606 130.571 109.54L139.333 115.944M183.315 115.944V161.263C183.315 162.864 183.78 164.431 184.654 165.773L228.873 233.698C237.107 246.346 228.031 263.084 212.94 263.084H112.464C97.6122 263.084 88.4951 246.818 96.2452 234.15L138.118 165.702C138.912 164.404 139.333 162.911 139.333 161.388V115.944M183.315 115.944H176.087M139.333 115.944H154.594" stroke="black" stroke-width="2.47988" stroke-linecap="round"/>
<path opacity="0.8" d="M143.021 107.678V99.4117H128.916V107.678L139.522 115.118V162.649L104.032 223.406C85.756 248.535 99.5443 259.777 109.335 262.257C101.829 257.297 105.391 244.484 108.111 238.698L148.325 162.649V115.118L143.021 107.678Z" fill="white"/>
<path d="M212.498 210.558L209.979 206.046L230.231 236.218C236.183 252.089 223.067 260.741 215.765 263.084H186.42C211.074 259.505 224.642 232.31 212.498 210.558Z" fill="#48738B" fill-opacity="0.22"/>
<path fill-rule="evenodd" clip-rule="evenodd" d="M141.368 186.621H125.662V184.141H141.368C142.053 184.141 142.608 184.696 142.608 185.381C142.608 186.066 142.053 186.621 141.368 186.621Z" fill="black"/>
<path fill-rule="evenodd" clip-rule="evenodd" d="M134.755 199.847H117.396V197.367H134.755C135.44 197.367 135.995 197.922 135.995 198.607C135.995 199.292 135.44 199.847 134.755 199.847Z" fill="black"/>
<path fill-rule="evenodd" clip-rule="evenodd" d="M126.489 211.419H110.783V208.94H126.489C127.174 208.94 127.729 209.495 127.729 210.18C127.729 210.864 127.174 211.419 126.489 211.419Z" fill="black"/>
<path fill-rule="evenodd" clip-rule="evenodd" d="M119.877 222.992H104.171V220.512H119.877C120.561 220.512 121.116 221.067 121.116 221.752C121.116 222.437 120.561 222.992 119.877 222.992Z" fill="black"/>
<path d="M183.315 115.944L192.368 109.537C193.682 108.607 194.463 107.098 194.463 105.488V101.892C194.463 100.522 193.352 99.4117 191.983 99.4117H131.018C129.648 99.4117 128.538 100.522 128.538 101.892V105.536C128.538 107.119 129.293 108.606 130.571 109.54L139.332 115.944M183.315 115.944V161.263C183.315 162.864 183.78 164.431 184.653 165.773L228.873 233.698C237.107 246.346 228.031 263.084 212.94 263.084H112.463C97.6122 263.084 88.495 246.818 96.2451 234.15L138.118 165.702C138.912 164.404 139.332 162.911 139.332 161.388V115.944M183.315 115.944H176.087M139.332 115.944H154.594" stroke="black" stroke-width="2.47988" stroke-linecap="round"/>
<circle cx="221.137" cy="121.317" r="3.71981" fill="#6190E8" stroke="black" stroke-width="1.23994"/>
<circle cx="240.976" cy="99.825" r="3.71981" fill="#A7BFE8" stroke="black" stroke-width="1.23994"/>
<circle cx="115.329" cy="122.971" r="3.71981" fill="#6190E8" stroke="black"/>
<circle cx="105.824" cy="157.275" r="9.09288" fill="#6190E8" stroke="black" stroke-width="1.23994"/>
<circle cx="221.551" cy="104.372" r="0.826625" fill="black"/>
<circle cx="288.508" cy="115.944" r="1.65325" fill="black"/>
<circle cx="257.922" cy="98.585" r="0.826625" fill="black"/>
<circle cx="274.455" cy="104.372" r="0.826625" fill="black"/>
<circle cx="292.641" cy="86.1858" r="0.826625" fill="black"/>
<circle cx="243.042" cy="82.8792" r="0.826625" fill="black"/>
<circle cx="76.4779" cy="125.45" r="7.85294" fill="#A7BFE8" stroke="black" stroke-width="1.23994"/>
<circle cx="91.3585" cy="96.5185" r="3.71981" fill="white" stroke="black" stroke-width="1.23994"/>
<circle cx="46.7198" cy="105.611" r="3.71981" fill="#6190E8" stroke="black" stroke-width="1.23994"/>
<circle cx="264.535" cy="117.598" r="9.09288" fill="white" stroke="black" stroke-width="1.23994"/>
<circle cx="304.213" cy="101.892" r="5.78638" fill="#A7BFE8" stroke="black"/>
<circle cx="302.147" cy="71.7198" r="3.71981" fill="white" stroke="black" stroke-width="1.23994"/>
<circle cx="74.412" cy="149.836" r="1.65325" fill="black"/>
<circle cx="52.0927" cy="122.557" r="1.65325" fill="black"/>
<circle cx="64.4926" cy="91.9721" r="0.826625" fill="black"/>
<circle cx="79.3715" cy="82.8792" r="0.826625" fill="black"/>
<defs>
<filter id="filter0_f_209_3710" x="0.18853" y="0.0835495" width="372.808" height="364.542" filterUnits="userSpaceOnUse" color-interpolation-filters="sRGB">
<feFlood flood-opacity="0" result="BackgroundImageFix"/>
<feBlend mode="normal" in="SourceGraphic" in2="BackgroundImageFix" result="shape"/>
<feGaussianBlur stdDeviation="47.1176" result="effect1_foregroundBlur_209_3710"/>
</filter>
<linearGradient id="paint0_linear_209_3710" x1="231.057" y1="134.13" x2="231.057" y2="238.72" gradientUnits="userSpaceOnUse">
<stop stop-color="#CDEDFF"/>
<stop offset="0.526042" stop-color="#CDEDFF" stop-opacity="0.932292"/>
<stop offset="1" stop-color="#CDEDFF" stop-opacity="0"/>
</linearGradient>
<linearGradient id="paint1_linear_209_3710" x1="163.274" y1="99.4117" x2="163.274" y2="263.084" gradientUnits="userSpaceOnUse">
<stop stop-color="#CDEDFF"/>
<stop offset="0.526042" stop-color="#CDEDFF" stop-opacity="0.932292"/>
<stop offset="1" stop-color="#CDEDFF" stop-opacity="0"/>
</linearGradient>
</defs>
</svg>
