<svg width="36" height="36" viewBox="0 0 36 36" fill="none" xmlns="http://www.w3.org/2000/svg">
<path d="M21.9913 3.17249H13.2413C12.4359 3.17249 11.783 3.8254 11.783 4.63082V7.54749C11.783 8.3529 12.4359 9.00582 13.2413 9.00582H21.9913C22.7967 9.00582 23.4496 8.3529 23.4496 7.54749V4.63082C23.4496 3.8254 22.7967 3.17249 21.9913 3.17249Z" stroke="#235DCA" stroke-width="2" stroke-linecap="round" stroke-linejoin="round"/>
<path d="M23.4495 6.08923H26.3661C27.1397 6.08923 27.8815 6.39652 28.4285 6.94351C28.9755 7.49049 29.2828 8.23235 29.2828 9.0059V29.4226C29.2828 30.1961 28.9755 30.938 28.4285 31.485C27.8815 32.0319 27.1397 32.3392 26.3661 32.3392H8.86613C8.09258 32.3392 7.35072 32.0319 6.80373 31.485C6.25675 30.938 5.94946 30.1961 5.94946 29.4226V9.0059C5.94946 8.23235 6.25675 7.49049 6.80373 6.94351C7.35072 6.39652 8.09258 6.08923 8.86613 6.08923H11.7828" stroke="#235DCA" stroke-width="2" stroke-linecap="round" stroke-linejoin="round"/>
<path d="M17.6162 16.2975H23.4495" stroke="#235DCA" stroke-width="2" stroke-linecap="round" stroke-linejoin="round"/>
<path d="M17.6162 23.5892H23.4495" stroke="#235DCA" stroke-width="2" stroke-linecap="round" stroke-linejoin="round"/>
<path d="M11.783 16.2975H11.7975" stroke="#235DCA" stroke-width="2" stroke-linecap="round" stroke-linejoin="round"/>
<path d="M11.783 23.5892H11.7975" stroke="#235DCA" stroke-width="2" stroke-linecap="round" stroke-linejoin="round"/>
</svg>
