<svg width="71" height="47" viewBox="0 0 71 47" fill="none" xmlns="http://www.w3.org/2000/svg">
<path d="M4.04152 10.7188C4.37971 10.3384 6.70478 11.7052 7.08525 12.283C9.86124 14.6221 15.5908 19.943 16.301 22.5133L10.7631 22.006L7.08525 16.6372C4.04152 13.9993 3.78787 11.1627 4.04152 10.7188Z" fill="#D9D9D9"/>
<path d="M7.08525 12.283C6.70478 11.7052 4.37971 10.3384 4.04152 10.7188M7.08525 12.283V14.4601M7.08525 12.283C9.86124 14.6221 15.5908 19.943 16.301 22.5133L10.7631 22.006L7.08525 16.6372M4.04152 10.7188C3.78787 11.1627 4.04152 13.9993 7.08525 16.6372M4.04152 10.7188L7.08525 14.4601M7.08525 16.6372V14.4601" stroke="black" stroke-width="0.42274"/>
<path d="M7.59297 16.764C5.96965 16.0538 4.57743 12.5788 4.08423 10.9302C4.08423 10.4567 6.12747 13.7766 7.29706 14.5235L7.59297 16.764Z" fill="#8B8B8B" stroke="#8B8B8B" stroke-width="0.42274"/>
<path d="M7.08525 12.283C6.70478 11.7052 4.37971 10.3384 4.04152 10.7188M7.08525 12.283V14.4601M7.08525 12.283C9.86124 14.6221 15.5908 19.943 16.301 22.5133L10.7631 22.006L7.08525 16.6372M4.04152 10.7188C3.78787 11.1627 4.04152 13.9993 7.08525 16.6372M4.04152 10.7188L7.08525 14.4601M7.08525 16.6372V14.4601" stroke="black" stroke-width="0.42274"/>
<path d="M17.9996 7.58325C18.8147 7.50057 21.0122 12.3753 17.5441 23.8689L17.2347 24.5595C16.6272 25.9154 15.7835 27.1526 14.7431 28.2133C13.9445 26.9724 13.4622 25.5548 13.3386 24.0843L13.2845 23.4412C13.6879 9.90506 17.1844 7.66594 17.9996 7.58325Z" fill="#A9A9A9"/>
<path d="M17.9996 7.58325C18.8147 7.50057 21.0122 12.3753 17.5441 23.8689L17.2347 24.5595C16.6272 25.9154 15.7835 27.1526 14.7431 28.2133V28.2133M17.9996 7.58325C17.1844 7.66594 13.6879 9.90506 13.2845 23.4412L13.3386 24.0843C13.4622 25.5548 13.9445 26.9724 14.7431 28.2133V28.2133M17.9996 7.58325L16.3713 17.8983L14.7431 28.2133" stroke="black" stroke-width="0.42274"/>
<path d="M15.6722 22.0706L17.8886 7.84394C17.8992 7.77606 17.8304 7.72467 17.771 7.75921C14.3518 9.74845 13.4889 20.5001 13.4877 25.696L15.1752 25.9142L15.6722 22.0706Z" fill="#646363" stroke="#646363" stroke-width="0.42274"/>
<path d="M17.9996 7.58325C18.8147 7.50057 21.0122 12.3753 17.5441 23.8689L17.2347 24.5595C16.6272 25.9154 15.7835 27.1526 14.7431 28.2133V28.2133M17.9996 7.58325C17.1844 7.66594 13.6879 9.90506 13.2845 23.4412L13.3386 24.0843C13.4622 25.5548 13.9445 26.9724 14.7431 28.2133V28.2133M17.9996 7.58325L16.3713 17.8983L14.7431 28.2133" stroke="black" stroke-width="0.42274"/>
<path fill-rule="evenodd" clip-rule="evenodd" d="M12.4666 5.05361L10.4672 1.41858L8.46772 5.0536C7.61625 6.60159 7.16978 8.33965 7.16978 10.1064V30.3763L10.4672 32.1518H3.70331L7.16978 34.6037V40.6489L6.36657 42.0016L6.70477 42.4666H14.2718L14.6523 42.0016L13.7645 40.6489V34.6037L17.231 32.1518L13.7645 30.3763V10.1064C13.7645 8.33965 13.3181 6.60159 12.4666 5.05361Z" fill="#9C9C9C"/>
<path d="M10.4672 32.1518L7.16978 30.3763L3.70331 32.1518H10.4672Z" fill="#9C9C9C"/>
<path d="M10.4672 1.41858V32.1518M10.4672 1.41858L12.4666 5.05361M10.4672 1.41858L8.46772 5.0536M13.7645 30.3763L10.4672 32.1518M13.7645 30.3763L17.231 32.1518M13.7645 30.3763V10.1064M7.16978 30.3763L10.4672 32.1518M7.16978 30.3763L3.70331 32.1518M7.16978 30.3763V10.1064M10.4672 32.1518H3.70331M10.4672 32.1518H17.231M3.70331 32.1518L7.16978 34.6037M7.16978 34.6037H13.7645M7.16978 34.6037V40.6489L6.36657 42.0016L6.70477 42.4666H14.2718L14.6523 42.0016L13.7645 40.6489V34.6037M13.7645 34.6037L17.231 32.1518M12.4666 5.05361C13.3181 6.60159 13.7645 8.33965 13.7645 10.1064M12.4666 5.05361V5.05361C13.3181 6.60159 13.7645 8.33965 13.7645 10.1064V10.1064M7.16978 10.1064C7.16978 8.33965 7.61625 6.60159 8.46772 5.0536M7.16978 10.1064V10.1064C7.16978 8.33965 7.61625 6.60159 8.46772 5.0536V5.0536" stroke="black" stroke-width="0.42274"/>
<path d="M7.55005 32.2786H4.12585L7.25413 34.7727V40.6488L6.32411 41.9593L6.87367 42.4243H9.07192L8.6069 41.9593L9.15647 40.6488V34.7727L7.55005 32.2786Z" fill="#6F6F6F"/>
<path d="M7.16941 30.4185L4.2525 32.0249H10.0863L7.16941 30.4185Z" fill="#494949" stroke="#494949" stroke-width="0.42274"/>
<path d="M13.8068 30.4186L10.8899 32.025H16.7237L13.8068 30.4186Z" fill="#494949" stroke="#494949" stroke-width="0.42274"/>
<path d="M10.4251 32.0672L7.17004 30.3763L7.21232 9.36609C7.38141 7.03257 9.42466 3.46182 10.4251 1.96814V32.0672Z" fill="#343434"/>
<path d="M10.4672 1.41858V32.1518M10.4672 1.41858L12.4666 5.05361M10.4672 1.41858L8.46772 5.0536M13.7645 30.3763L10.4672 32.1518M13.7645 30.3763L17.231 32.1518M13.7645 30.3763V10.1064M7.16978 30.3763L10.4672 32.1518M7.16978 30.3763L3.70331 32.1518M7.16978 30.3763V10.1064M10.4672 32.1518H3.70331M10.4672 32.1518H17.231M3.70331 32.1518L7.16978 34.6037M7.16978 34.6037H13.7645M7.16978 34.6037V40.6489L6.36657 42.0016L6.70477 42.4666H14.2718L14.6523 42.0016L13.7645 40.6489V34.6037M13.7645 34.6037L17.231 32.1518M12.4666 5.05361C13.3181 6.60159 13.7645 8.33965 13.7645 10.1064M12.4666 5.05361V5.05361C13.3181 6.60159 13.7645 8.33965 13.7645 10.1064V10.1064M7.16978 10.1064C7.16978 8.33965 7.61625 6.60159 8.46772 5.0536M7.16978 10.1064V10.1064C7.16978 8.33965 7.61625 6.60159 8.46772 5.0536V5.0536" stroke="black" stroke-width="0.42274"/>
<path d="M1.86278 16.6503C2.05274 15.8533 7.37902 15.381 17.093 22.4356L17.6435 22.9549C18.7242 23.9745 19.6152 25.1781 20.2747 26.5094C18.8403 26.8556 17.3429 26.8449 15.9136 26.4781L15.2884 26.3177C2.63766 21.4857 1.67283 17.4473 1.86278 16.6503Z" fill="#D9D9D9"/>
<path d="M1.86278 16.6503C2.05274 15.8533 7.37902 15.381 17.093 22.4356L17.6435 22.9549C18.7242 23.9745 19.6152 25.1781 20.2747 26.5094V26.5094M1.86278 16.6503C1.67283 17.4473 2.63766 21.4857 15.2884 26.3177L15.9136 26.4781C17.3429 26.8449 18.8403 26.8556 20.2747 26.5094V26.5094M1.86278 16.6503L11.0688 21.5799L20.2747 26.5094" stroke="black" stroke-width="0.42274"/>
<path d="M14.7788 23.6124L2.07212 16.8411C2.0115 16.8088 1.94034 16.8569 1.95344 16.9243C2.70773 20.8075 12.5777 25.1579 17.4843 26.8675L18.2453 25.3457L14.7788 23.6124Z" fill="#8B8B8B" stroke="#8B8B8B" stroke-width="0.42274"/>
<path d="M1.86278 16.6503C2.05274 15.8533 7.37902 15.381 17.093 22.4356L17.6435 22.9549C18.7242 23.9745 19.6152 25.1781 20.2747 26.5094C18.8403 26.8556 17.3429 26.8449 15.9136 26.4781L15.2884 26.3177C2.63766 21.4857 1.67283 17.4473 1.86278 16.6503Z" fill="#D9D9D9"/>
<path d="M1.86278 16.6503C2.05274 15.8533 7.37902 15.381 17.093 22.4356L17.6435 22.9549C18.7242 23.9745 19.6152 25.1781 20.2747 26.5094V26.5094M1.86278 16.6503C1.67283 17.4473 2.63766 21.4857 15.2884 26.3177L15.9136 26.4781C17.3429 26.8449 18.8403 26.8556 20.2747 26.5094V26.5094M1.86278 16.6503L11.0688 21.5799L20.2747 26.5094" stroke="black" stroke-width="0.42274"/>
<path d="M14.7788 23.6124L2.07212 16.8411C2.0115 16.8088 1.94034 16.8569 1.95344 16.9243C2.70773 20.8075 12.5777 25.1579 17.4843 26.8675L18.2453 25.3457L14.7788 23.6124Z" fill="#8B8B8B" stroke="#8B8B8B" stroke-width="0.42274"/>
<path d="M1.86278 16.6503C2.05274 15.8533 7.37902 15.381 17.093 22.4356L17.6435 22.9549C18.7242 23.9745 19.6152 25.1781 20.2747 26.5094V26.5094M1.86278 16.6503C1.67283 17.4473 2.63766 21.4857 15.2884 26.3177L15.9136 26.4781C17.3429 26.8449 18.8403 26.8556 20.2747 26.5094V26.5094M1.86278 16.6503L11.0688 21.5799L20.2747 26.5094" stroke="black" stroke-width="0.42274"/>
<path d="M0.828472 23.5232C0.495269 22.0275 10.7841 23.0016 17.3012 26.4141C17.7838 26.6669 18.2287 26.9829 18.6485 27.3301L20.9511 29.2348L18.0666 29.5648C17.5459 29.6244 17.0197 29.6448 16.4969 29.6095C6.99261 28.9687 1.13857 24.9151 0.828472 23.5232Z" fill="#D9D9D9"/>
<path d="M0.828472 23.5232C0.495269 22.0275 10.7841 23.0016 17.3012 26.4141C17.7838 26.6669 18.2287 26.9829 18.6485 27.3301L20.9511 29.2348M0.828472 23.5232C1.13857 24.9151 6.99261 28.9687 16.4969 29.6095C17.0197 29.6448 17.5459 29.6244 18.0666 29.5648L20.9511 29.2348M0.828472 23.5232L20.9511 29.2348" stroke="black" stroke-width="0.42274"/>
<path d="M15.54 27.6707L1.20814 23.7012C1.14007 23.6824 1.08038 23.7476 1.11222 23.8107C2.91243 27.3755 14.5504 29.9076 19.1756 29.6576L18.4569 28.6853L15.54 27.6707Z" fill="#8B8B8B"/>
<path d="M0.828472 23.5232C0.495269 22.0275 10.7841 23.0016 17.3012 26.4141C17.7838 26.6669 18.2287 26.9829 18.6485 27.3301L20.9511 29.2348M0.828472 23.5232C1.13857 24.9151 6.99261 28.9687 16.4969 29.6095C17.0197 29.6448 17.5459 29.6244 18.0666 29.5648L20.9511 29.2348M0.828472 23.5232L20.9511 29.2348" stroke="black" stroke-width="0.42274"/>
<path d="M36.0427 2.34851V6.26097C24.671 11.7347 8.43775 26.1826 36.1695 40.1838V44.3689L33.8867 44.3266V42.2129L32.7876 42.0861L32.3226 44.073L29.7439 43.3543L30.2512 41.452L28.9407 40.987L28.0529 42.8047L25.7278 41.6633L26.7001 39.8033L25.2628 39.0001L23.9946 40.6488L21.7963 38.831L23.1068 37.3091L22.1345 36.2945L20.5704 37.4782L18.7103 35.1954L20.1899 34.054L19.429 32.8703L17.6958 33.6736L16.5121 31.3908L18.3299 30.5875L17.8226 29.1502L15.7934 29.6152L15.1593 26.9097L17.1885 26.4447L17.0194 24.9651H14.8634V22.2173H17.0194L17.1462 20.8223L15.117 20.3572L15.6243 17.7785L17.6958 18.2435L18.1608 16.8485L16.3007 15.9607L17.273 13.7202L19.2176 14.5657L19.9363 13.2975L18.2876 12.0715L19.8095 9.95783L21.4582 11.1838L22.2191 10.296L20.824 8.73189L22.5996 7.0832L23.9946 8.73189L25.3474 7.75958L24.1637 5.898L26.4042 4.54676L27.5033 6.26097L29.3211 5.47679L28.687 3.65901L31.1812 2.81352L31.8576 4.73353L33.5908 4.33539V2.34851H36.0427Z" fill="#9A9A9A" stroke="black" stroke-width="0.42274"/>
<g filter="url(#filter0_d_209_1918)">
<path d="M36.0007 40.353C45.4563 40.353 53.1217 32.6876 53.1217 23.232C53.1217 13.7763 45.4563 6.11102 36.0007 6.11102C26.545 6.11102 18.8797 13.7763 18.8797 23.232C18.8797 32.6876 26.545 40.353 36.0007 40.353Z" stroke="black" stroke-width="0.42274" shape-rendering="crispEdges"/>
</g>
<path fill-rule="evenodd" clip-rule="evenodd" d="M52.9106 23.2319C52.9106 32.5708 45.3399 40.1415 36.001 40.1415C26.6621 40.1415 19.0914 32.5708 19.0914 23.2319C19.0914 13.893 26.6621 6.32227 36.001 6.32227C45.3399 6.32227 52.9106 13.893 52.9106 23.2319ZM39.5151 14.5294C42.1345 15.5831 44.2524 17.7994 45.0709 20.7288C45.3923 21.8789 45.4854 23.0387 45.3774 24.1601H48.6511C48.6724 23.8599 48.6832 23.5568 48.6832 23.2512C48.6832 18.0723 45.5789 13.6184 41.1296 11.6488L39.5151 14.5294ZM41.7847 30.6906C40.8476 31.4195 39.756 31.9819 38.5419 32.3211C35.4237 33.1924 32.2334 32.3857 29.9332 30.4433L28.3113 33.3371C30.4445 34.9659 33.1098 35.9334 36.001 35.9334C38.7588 35.9334 41.311 35.0532 43.3919 33.5583L41.7847 30.6906ZM26.644 24.1601C26.2438 20.0442 28.6097 16.0952 32.4901 14.5352L30.8724 11.6488C26.423 13.6184 23.3188 18.0723 23.3188 23.2512C23.3188 23.5568 23.3296 23.8599 23.3508 24.1601H26.644ZM36.0005 26.191C37.6348 26.191 38.9597 24.8662 38.9597 23.2319C38.9597 21.5975 37.6348 20.2727 36.0005 20.2727C34.3662 20.2727 33.0413 21.5975 33.0413 23.2319C33.0413 24.8662 34.3662 26.191 36.0005 26.191Z" fill="#9A9A9A"/>
<path d="M45.0709 20.7288L44.8674 20.7857L45.0709 20.7288ZM39.5151 14.5294L39.3307 14.4261L39.2131 14.6358L39.4362 14.7255L39.5151 14.5294ZM45.3774 24.1601L45.167 24.1399L45.1447 24.3715H45.3774V24.1601ZM48.6511 24.1601V24.3715H48.8481L48.862 24.175L48.6511 24.1601ZM41.1296 11.6488L41.2151 11.4555L41.0392 11.3776L40.9452 11.5454L41.1296 11.6488ZM38.5419 32.3211L38.485 32.1176H38.485L38.5419 32.3211ZM41.7847 30.6906L41.9691 30.5873L41.8489 30.3729L41.6549 30.5238L41.7847 30.6906ZM29.9332 30.4433L30.0696 30.2818L29.874 30.1166L29.7488 30.3399L29.9332 30.4433ZM28.3113 33.3371L28.1269 33.2337L28.0373 33.3937L28.183 33.5051L28.3113 33.3371ZM43.3919 33.5583L43.5153 33.73L43.6687 33.6198L43.5763 33.455L43.3919 33.5583ZM32.4901 14.5352L32.569 14.7313L32.7921 14.6416L32.6745 14.4319L32.4901 14.5352ZM26.644 24.1601V24.3715H26.8769L26.8544 24.1397L26.644 24.1601ZM30.8724 11.6488L31.0568 11.5454L30.9627 11.3776L30.7868 11.4555L30.8724 11.6488ZM23.3508 24.1601L23.14 24.175L23.1539 24.3715H23.3508V24.1601ZM36.001 40.3528C45.4567 40.3528 53.122 32.6875 53.122 23.2319H52.6992C52.6992 32.4541 45.2232 39.9301 36.001 39.9301V40.3528ZM18.88 23.2319C18.88 32.6875 26.5453 40.3528 36.001 40.3528V39.9301C26.7788 39.9301 19.3027 32.4541 19.3027 23.2319H18.88ZM36.001 6.1109C26.5453 6.1109 18.88 13.7762 18.88 23.2319H19.3027C19.3027 14.0097 26.7788 6.53364 36.001 6.53364V6.1109ZM53.122 23.2319C53.122 13.7762 45.4567 6.1109 36.001 6.1109V6.53364C45.2232 6.53364 52.6992 14.0097 52.6992 23.2319H53.122ZM45.2745 20.6719C44.4376 17.6766 42.2717 15.4105 39.5939 14.3333L39.4362 14.7255C41.9973 15.7558 44.0673 17.9222 44.8674 20.7857L45.2745 20.6719ZM45.5878 24.1804C45.6982 23.0335 45.603 21.8474 45.2745 20.6719L44.8674 20.7857C45.1816 21.9103 45.2725 23.044 45.167 24.1399L45.5878 24.1804ZM48.6511 23.9487H45.3774V24.3715H48.6511V23.9487ZM48.4718 23.2512C48.4718 23.5518 48.4612 23.8499 48.4403 24.1452L48.862 24.175C48.8836 23.8699 48.8946 23.5618 48.8946 23.2512H48.4718ZM41.044 11.8421C45.4197 13.7791 48.4718 18.1589 48.4718 23.2512H48.8946C48.8946 17.9856 45.7382 13.4577 41.2151 11.4555L41.044 11.8421ZM39.6994 14.6328L41.314 11.7521L40.9452 11.5454L39.3307 14.4261L39.6994 14.6328ZM38.5987 32.5247C39.8398 32.178 40.956 31.6029 41.9145 30.8575L41.6549 30.5238C40.7391 31.2361 39.6722 31.7859 38.485 32.1176L38.5987 32.5247ZM29.7968 30.6047C32.1482 32.5905 35.4104 33.4156 38.5988 32.5247L38.485 32.1176C35.4371 32.9692 32.3185 32.181 30.0696 30.2818L29.7968 30.6047ZM28.4957 33.4404L30.1176 30.5466L29.7488 30.3399L28.1269 33.2337L28.4957 33.4404ZM36.001 35.722C33.1577 35.722 30.5372 34.7708 28.4396 33.1691L28.183 33.5051C30.3518 35.1611 33.0618 36.1448 36.001 36.1448V35.722ZM43.2686 33.3866C41.2224 34.8565 38.7131 35.722 36.001 35.722V36.1448C38.8045 36.1448 41.3995 35.2498 43.5153 33.73L43.2686 33.3866ZM41.6003 30.794L43.2076 33.6617L43.5763 33.455L41.9691 30.5873L41.6003 30.794ZM32.4113 14.3391C28.4433 15.9343 26.0244 19.9719 26.4336 24.1806L26.8544 24.1397C26.4632 20.1165 28.7762 16.2561 32.569 14.7313L32.4113 14.3391ZM30.688 11.7521L32.3058 14.6386L32.6745 14.4319L31.0568 11.5454L30.688 11.7521ZM23.5301 23.2512C23.5301 18.1589 26.5823 13.7791 30.9579 11.8421L30.7868 11.4555C26.2638 13.4578 23.1074 17.9856 23.1074 23.2512H23.5301ZM23.5617 24.1452C23.5408 23.8499 23.5301 23.5518 23.5301 23.2512H23.1074C23.1074 23.5618 23.1184 23.8699 23.14 24.175L23.5617 24.1452ZM26.644 23.9487H23.3508V24.3715H26.644V23.9487ZM38.7483 23.2319C38.7483 24.7494 37.5181 25.9797 36.0005 25.9797V26.4024C37.7516 26.4024 39.1711 24.9829 39.1711 23.2319H38.7483ZM36.0005 20.484C37.5181 20.484 38.7483 21.7143 38.7483 23.2319H39.1711C39.1711 21.4808 37.7516 20.0613 36.0005 20.0613V20.484ZM33.2527 23.2319C33.2527 21.7143 34.4829 20.484 36.0005 20.484V20.0613C34.2495 20.0613 32.83 21.4808 32.83 23.2319H33.2527ZM36.0005 25.9797C34.4829 25.9797 33.2527 24.7494 33.2527 23.2319H32.83C32.83 24.9829 34.2495 26.4024 36.0005 26.4024V25.9797Z" fill="black"/>
<g filter="url(#filter1_d_209_1918)">
<path d="M25.7704 24.3733H32.9992C35.9584 29.6678 36.456 31.1794 38.1144 37.0978C42.7646 27.7552 48.3025 21.6255 55.3671 14.7771L57.6873 17.1022C45.1321 27.7829 41.9386 37.1352 38.3321 45.2775C38.176 45.6299 37.3936 45.5571 37.2646 45.1939C35.7099 40.8177 29.8907 29.9357 25.7704 24.3733Z" fill="#EE2929"/>
<path d="M25.7704 24.1619H25.3508L25.6005 24.4991C27.6523 27.269 30.1319 31.3705 32.2941 35.3298C34.4573 39.2908 36.294 43.0932 37.0654 45.2646C37.12 45.4182 37.2377 45.5256 37.3609 45.5943C37.485 45.6635 37.6297 45.7028 37.7704 45.7147C37.9107 45.7266 38.06 45.7123 38.1928 45.6617C38.3259 45.611 38.4571 45.5172 38.5253 45.3631C38.8727 44.5789 39.216 43.7839 39.5641 42.978C42.8316 35.4127 46.5152 26.8838 57.8243 17.2632L57.9986 17.1149L57.8369 16.9529L55.5167 14.6278L55.3695 14.4803L55.22 14.6253C48.2718 21.3608 42.7855 27.4148 38.1705 36.5154C37.423 33.8572 36.9047 32.1068 36.2413 30.424C35.5344 28.6312 34.6647 26.9198 33.1838 24.2702L33.1233 24.1619H32.9992H25.7704Z" stroke="black" stroke-width="0.42274"/>
</g>
<path d="M53.2805 13.381L56.2409 13.8039L55.5816 14.5511L55.3639 14.7978L55.5824 15.0438L57.292 16.9686L57.5349 17.242L57.8122 17.0036L58.3132 16.5729V19.5541V20.5724L58.9691 19.7935L60.1584 18.3812L60.2244 18.3029L60.2409 18.2017L60.8022 14.764L61.4696 15.4314L61.6882 15.65L61.9429 15.4749L63.1322 14.6573L63.4791 14.4188L63.1994 14.1041L62.2453 13.0307L66.4694 8.89105C67.8013 7.58575 68.7664 5.95299 69.2676 4.15674L69.5438 3.16716L69.7263 2.5133L69.0771 2.71186L67.9809 3.04719C66.2829 3.56656 64.7422 4.50299 63.4993 5.77099L59.8534 9.49043L58.7053 8.4954L58.4331 8.25951L58.1888 8.52417L57.2968 9.49046L57.1121 9.69054L57.2472 9.92694L58.0157 11.2718L57.7598 11.6008H54.8197H54.7025L54.6065 11.668L53.1199 12.7086L52.3494 13.248L53.2805 13.381Z" fill="black" stroke="black" stroke-width="0.743302"/>
<path d="M68.974 2.9404C66.7733 4.05471 64.8374 5.62855 63.2973 7.55551L61.2268 10.1461L60.3924 9.32378L62.4907 7.10426C64.2813 5.21011 66.5067 3.78092 68.974 2.9404Z" fill="#8B8B8B"/>
<defs>
<filter id="filter0_d_209_1918" x="18.0765" y="5.89966" width="35.2566" height="35.172" filterUnits="userSpaceOnUse" color-interpolation-filters="sRGB">
<feFlood flood-opacity="0" result="BackgroundImageFix"/>
<feColorMatrix in="SourceAlpha" type="matrix" values="0 0 0 0 0 0 0 0 0 0 0 0 0 0 0 0 0 0 127 0" result="hardAlpha"/>
<feMorphology radius="0.169096" operator="dilate" in="SourceAlpha" result="effect1_dropShadow_209_1918"/>
<feOffset dx="-0.42274" dy="0.338192"/>
<feComposite in2="hardAlpha" operator="out"/>
<feColorMatrix type="matrix" values="0 0 0 0 0.370833 0 0 0 0 0.370833 0 0 0 0 0.370833 0 0 0 1 0"/>
<feBlend mode="normal" in2="BackgroundImageFix" result="effect1_dropShadow_209_1918"/>
<feBlend mode="normal" in="SourceGraphic" in2="effect1_dropShadow_209_1918" result="shape"/>
</filter>
<filter id="filter1_d_209_1918" x="24.9312" y="14.1836" width="33.6324" height="31.7463" filterUnits="userSpaceOnUse" color-interpolation-filters="sRGB">
<feFlood flood-opacity="0" result="BackgroundImageFix"/>
<feColorMatrix in="SourceAlpha" type="matrix" values="0 0 0 0 0 0 0 0 0 0 0 0 0 0 0 0 0 0 127 0" result="hardAlpha"/>
<feOffset dx="0.253644"/>
<feComposite in2="hardAlpha" operator="out"/>
<feColorMatrix type="matrix" values="0 0 0 0 0 0 0 0 0 0 0 0 0 0 0 0 0 0 1 0"/>
<feBlend mode="normal" in2="BackgroundImageFix" result="effect1_dropShadow_209_1918"/>
<feBlend mode="normal" in="SourceGraphic" in2="effect1_dropShadow_209_1918" result="shape"/>
</filter>
</defs>
</svg>
