<svg width="36" height="36" viewBox="0 0 36 36" fill="none" xmlns="http://www.w3.org/2000/svg">
<path d="M21.991 3.17261H13.241C12.4356 3.17261 11.7827 3.82553 11.7827 4.63094V7.54761C11.7827 8.35302 12.4356 9.00594 13.241 9.00594H21.991C22.7965 9.00594 23.4494 8.35302 23.4494 7.54761V4.63094C23.4494 3.82553 22.7965 3.17261 21.991 3.17261Z" stroke="#002A78" stroke-width="2" stroke-linecap="round" stroke-linejoin="round"/>
<path d="M23.4497 6.08911H26.3664C27.1399 6.08911 27.8818 6.3964 28.4288 6.94338C28.9757 7.49036 29.283 8.23223 29.283 9.00578V29.4224C29.283 30.196 28.9757 30.9379 28.4288 31.4848C27.8818 32.0318 27.1399 32.3391 26.3664 32.3391H8.86637C8.09283 32.3391 7.35096 32.0318 6.80398 31.4848C6.257 30.9379 5.94971 30.196 5.94971 29.4224V9.00578C5.94971 8.23223 6.257 7.49036 6.80398 6.94338C7.35096 6.3964 8.09283 6.08911 8.86637 6.08911H11.783" stroke="#002A78" stroke-width="2" stroke-linecap="round" stroke-linejoin="round"/>
<path d="M17.6162 16.2976H23.4495" stroke="#002A78" stroke-width="2" stroke-linecap="round" stroke-linejoin="round"/>
<path d="M17.6162 23.5891H23.4495" stroke="#002A78" stroke-width="2" stroke-linecap="round" stroke-linejoin="round"/>
<path d="M11.7827 16.2976H11.7973" stroke="#002A78" stroke-width="2" stroke-linecap="round" stroke-linejoin="round"/>
<path d="M11.7827 23.5891H11.7973" stroke="#002A78" stroke-width="2" stroke-linecap="round" stroke-linejoin="round"/>
</svg>
