<svg width="35" height="33" viewBox="0 0 35 33" fill="none" xmlns="http://www.w3.org/2000/svg">
<path fill-rule="evenodd" clip-rule="evenodd" d="M20.3162 9.4V10.4H24.5162C24.6753 10.4 24.828 10.4632 24.9405 10.5757C25.053 10.6883 25.1162 10.8409 25.1162 11C25.1162 11.1591 25.053 11.3117 24.9405 11.4243C24.828 11.5368 24.6753 11.6 24.5162 11.6H9.71621C9.55708 11.6 9.40447 11.5368 9.29195 11.4243C9.17942 11.3117 9.11621 11.1591 9.11621 11C9.11621 10.8409 9.17942 10.6883 9.29195 10.5757C9.40447 10.4632 9.55708 10.4 9.71621 10.4H13.9162V9.4C13.9162 8.6272 14.5434 8 15.3162 8H18.9162C19.689 8 20.3162 8.6272 20.3162 9.4ZM15.1162 9.4C15.1162 9.34696 15.1373 9.29609 15.1748 9.25858C15.2123 9.22107 15.2632 9.2 15.3162 9.2H18.9162C18.9693 9.2 19.0201 9.22107 19.0576 9.25858C19.0951 9.29609 19.1162 9.34696 19.1162 9.4V10.4H15.1162V9.4Z" fill="#9A9A9A"/>
<path d="M11.5144 12.9424C11.5076 12.8634 11.4851 12.7866 11.4484 12.7163C11.4117 12.646 11.3614 12.5837 11.3005 12.533C11.2395 12.4823 11.1692 12.4441 11.0934 12.4208C11.0176 12.3974 10.938 12.3893 10.859 12.3969C10.7801 12.4045 10.7035 12.4277 10.6336 12.4651C10.5637 12.5025 10.5019 12.5534 10.4518 12.6149C10.4016 12.6763 10.3642 12.7471 10.3416 12.823C10.319 12.899 10.3116 12.9788 10.32 13.0576L11.4496 24.736C11.4834 25.0822 11.6448 25.4033 11.9024 25.637C12.1601 25.8707 12.4954 26.0001 12.8432 26H21.3904C21.7383 26 22.0738 25.8705 22.3314 25.6367C22.5891 25.4029 22.7504 25.0815 22.784 24.7352L23.9144 13.0576C23.9297 12.8991 23.8814 12.741 23.7801 12.6182C23.6788 12.4953 23.5329 12.4177 23.3744 12.4024C23.2159 12.3871 23.0578 12.4354 22.935 12.5367C22.8121 12.638 22.7345 12.7839 22.7192 12.9424L21.5896 24.6192C21.5848 24.6687 21.5618 24.7147 21.525 24.7481C21.4881 24.7815 21.4402 24.8 21.3904 24.8H12.8432C12.7935 24.8 12.7455 24.7815 12.7087 24.7481C12.6718 24.7147 12.6488 24.6687 12.644 24.6192L11.5144 12.9424Z" fill="#9A9A9A"/>
<path d="M14.8812 14.0008C14.9598 13.9962 15.0387 14.0071 15.1132 14.0329C15.1876 14.0587 15.2563 14.099 15.3152 14.1514C15.3741 14.2037 15.4222 14.2672 15.4565 14.3382C15.4909 14.4091 15.511 14.4861 15.5156 14.5648L15.9156 21.3648C15.9249 21.5238 15.8707 21.6801 15.7648 21.7991C15.659 21.9182 15.5102 21.9903 15.3512 21.9996C15.1921 22.009 15.0359 21.9547 14.9169 21.8489C14.7978 21.743 14.7257 21.5942 14.7164 21.4352L14.3164 14.6352C14.3117 14.5565 14.3226 14.4777 14.3484 14.4032C14.3743 14.3287 14.4145 14.2601 14.4669 14.2012C14.5193 14.1422 14.5827 14.0942 14.6537 14.0598C14.7246 14.0255 14.8025 14.0054 14.8812 14.0008ZM19.9156 14.6352C19.9249 14.4762 19.8707 14.32 19.7648 14.2009C19.659 14.0819 19.5102 14.0098 19.3512 14.0004C19.1921 13.9911 19.0359 14.0453 18.9169 14.1512C18.7978 14.257 18.7257 14.4058 18.7164 14.5648L18.3164 21.3648C18.307 21.5237 18.3612 21.6799 18.467 21.7988C18.5727 21.9178 18.7214 21.9899 18.8804 21.9992C19.0393 22.0086 19.1954 21.9544 19.3144 21.8486C19.4333 21.7428 19.5054 21.5941 19.5148 21.4352L19.9156 14.6352Z" fill="#9A9A9A"/>
</svg>
