<svg width="36" height="36" viewBox="0 0 36 36" fill="none" xmlns="http://www.w3.org/2000/svg">
<path d="M21.991 3.03296H13.241C12.4356 3.03296 11.7827 3.68588 11.7827 4.49129V7.40796C11.7827 8.21337 12.4356 8.86629 13.241 8.86629H21.991C22.7965 8.86629 23.4494 8.21337 23.4494 7.40796V4.49129C23.4494 3.68588 22.7965 3.03296 21.991 3.03296Z" stroke="#A7BFE8" stroke-width="2" stroke-linecap="round" stroke-linejoin="round"/>
<path d="M23.4497 5.94946H26.3664C27.1399 5.94946 27.8818 6.25675 28.4288 6.80373C28.9757 7.35072 29.283 8.09258 29.283 8.86613V29.2828C29.283 30.0563 28.9757 30.7982 28.4288 31.3452C27.8818 31.8922 27.1399 32.1995 26.3664 32.1995H8.86637C8.09283 32.1995 7.35096 31.8922 6.80398 31.3452C6.257 30.7982 5.94971 30.0563 5.94971 29.2828V8.86613C5.94971 8.09258 6.257 7.35072 6.80398 6.80373C7.35096 6.25675 8.09283 5.94946 8.86637 5.94946H11.783" stroke="#A7BFE8" stroke-width="2" stroke-linecap="round" stroke-linejoin="round"/>
<path d="M17.6162 16.158H23.4495" stroke="#A7BFE8" stroke-width="2" stroke-linecap="round" stroke-linejoin="round"/>
<path d="M17.6162 23.4495H23.4495" stroke="#A7BFE8" stroke-width="2" stroke-linecap="round" stroke-linejoin="round"/>
<path d="M11.7827 16.158H11.7973" stroke="#A7BFE8" stroke-width="2" stroke-linecap="round" stroke-linejoin="round"/>
<path d="M11.7827 23.4495H11.7973" stroke="#A7BFE8" stroke-width="2" stroke-linecap="round" stroke-linejoin="round"/>
</svg>
